<?xml version="1.0" encoding="UTF-8"?>
<!DOCTYPE svg PUBLIC "-//W3C//DTD SVG 1.1//EN"
    "http://www.w3.org/Graphics/SVG/1.1/DTD/svg11.dtd"><svg xmlns="http://www.w3.org/2000/svg" height="512.0000" viewBox="0.0 0.0 512.0 512.0" font-size="1" xmlns:xlink="http://www.w3.org/1999/xlink" version="1.1" stroke-opacity="1" width="512.0000" stroke="rgb(0,0,0)"><defs></defs><g stroke-width="2.048" fill="rgb(0,0,0)" stroke-linecap="butt" stroke-linejoin="miter" stroke-opacity="0.7843137254901961" fill-opacity="0.0" stroke="rgb(100,10,0)" stroke-miterlimit="10.0"><path d="M 0.0000,512.0000 v -8.1270 h 8.1270 v 8.1270 h 8.1270 h 8.1270 v -8.1270 h -8.1270 v -8.1270 h 8.1270 v -8.1270 h -8.1270 h -8.1270 v 8.1270 h -8.1270 v -8.1270 v -8.1270 h 8.1270 v -8.1270 h -8.1270 v -8.1270 v -8.1270 h 8.1270 v 8.1270 h 8.1270 v -8.1270 h 8.1270 v 8.1270 v 8.1270 h -8.1270 v 8.1270 h 8.1270 h 8.1270 h 8.1270 v -8.1270 h -8.1270 v -8.1270 v -8.1270 h 8.1270 v 8.1270 h 8.1270 v -8.1270 h 8.1270 v 8.1270 v 8.1270 h -8.1270 v 8.1270 h 8.1270 v 8.1270 v 8.1270 h -8.1270 v -8.1270 h -8.1270 h -8.1270 v 8.1270 h 8.1270 v 8.1270 h -8.1270 v 8.1270 h 8.1270 h 8.1270 v -8.1270 h 8.1270 v 8.1270 h 8.1270 h 8.1270 v -8.1270 h -8.1270 v -8.1270 v -8.1270 h 8.1270 v 8.1270 h 8.1270 v -8.1270 h 8.1270 v 8.1270 v 8.1270 h -8.1270 v 8.1270 h 8.1270 h 8.1270 v -8.1270 h 8.1270 v 8.1270 h 8.1270 h 8.1270 v -8.1270 h -8.1270 v -8.1270 h 8.1270 v -8.1270 h -8.1270 h -8.1270 v 8.1270 h -8.1270 v -8.1270 v -8.1270 v -8.1270 h 8.1270 v 8.1270 h 8.1270 h 8.1270 v -8.1270 h -8.1270 v -8.1270 h 8.1270 v -8.1270 h -8.1270 h -8.1270 v 8.1270 h -8.1270 v -8.1270 h -8.1270 h -8.1270 v 8.1270 h 8.1270 v 8.1270 v 8.1270 h -8.1270 v -8.1270 h -8.1270 v 8.1270 h -8.1270 v -8.1270 v -8.1270 h 8.1270 v -8.1270 h -8.1270 v -8.1270 h 8.1270 v -8.1270 h -8.1270 v -8.1270 v -8.1270 h 8.1270 v 8.1270 h 8.1270 v -8.1270 h 8.1270 v 8.1270 v 8.1270 h -8.1270 v 8.1270 h 8.1270 h 8.1270 v -8.1270 h 8.1270 v 8.1270 h 8.1270 h 8.1270 v -8.1270 h -8.1270 v -8.1270 h 8.1270 v -8.1270 h -8.1270 h -8.1270 v 8.1270 h -8.1270 v -8.1270 v -8.1270 v -8.1270 h 8.1270 v 8.1270 h 8.1270 h 8.1270 v -8.1270 h -8.1270 v -8.1270 h 8.1270 v -8.1270 h -8.1270 h -8.1270 v 8.1270 h -8.1270 v -8.1270 h -8.1270 h -8.1270 v 8.1270 h 8.1270 v 8.1270 v 8.1270 h -8.1270 v -8.1270 h -8.1270 v 8.1270 h -8.1270 v -8.1270 v -8.1270 h 8.1270 v -8.1270 h -8.1270 h -8.1270 v 8.1270 h -8.1270 v -8.1270 h -8.1270 h -8.1270 v 8.1270 h 8.1270 v 8.1270 h -8.1270 v 8.1270 h 8.1270 h 8.1270 v -8.1270 h 8.1270 v 8.1270 v 8.1270 h -8.1270 v 8.1270 h 8.1270 v 8.1270 v 8.1270 h -8.1270 v -8.1270 h -8.1270 v 8.1270 h -8.1270 v -8.1270 v -8.1270 h 8.1270 v -8.1270 h -8.1270 h -8.1270 h -8.1270 v 8.1270 h 8.1270 v 8.1270 v 8.1270 h -8.1270 v -8.1270 h -8.1270 v 8.1270 h -8.1270 v -8.1270 v -8.1270 h 8.1270 v -8.1270 h -8.1270 v -8.1270 v -8.1270 h 8.1270 v 8.1270 h 8.1270 h 8.1270 v -8.1270 h -8.1270 v -8.1270 h 8.1270 v -8.1270 h -8.1270 h -8.1270 v 8.1270 h -8.1270 v -8.1270 v -8.1270 h 8.1270 v -8.1270 h -8.1270 v -8.1270 v -8.1270 h 8.1270 v 8.1270 h 8.1270 v -8.1270 h 8.1270 v 8.1270 v 8.1270 h -8.1270 v 8.1270 h 8.1270 h 8.1270 v -8.1270 h 8.1270 v 8.1270 h 8.1270 h 8.1270 v -8.1270 h -8.1270 v -8.1270 h 8.1270 v -8.1270 h -8.1270 h -8.1270 v 8.1270 h -8.1270 v -8.1270 v -8.1270 v -8.1270 h 8.1270 v 8.1270 h 8.1270 h 8.1270 v -8.1270 h -8.1270 v -8.1270 h 8.1270 v -8.1270 h -8.1270 h -8.1270 v 8.1270 h -8.1270 v -8.1270 h -8.1270 h -8.1270 v 8.1270 h 8.1270 v 8.1270 v 8.1270 h -8.1270 v -8.1270 h -8.1270 v 8.1270 h -8.1270 v -8.1270 v -8.1270 h 8.1270 v -8.1270 h -8.1270 v -8.1270 v -8.1270 h 8.1270 v 8.1270 h 8.1270 h 8.1270 v -8.1270 h -8.1270 v -8.1270 h 8.1270 v -8.1270 h -8.1270 h -8.1270 v 8.1270 h -8.1270 v -8.1270 v -8.1270 h 8.1270 v -8.1270 h -8.1270 v -8.1270 v -8.1270 h 8.1270 v 8.1270 h 8.1270 v -8.1270 h 8.1270 v 8.1270 v 8.1270 h -8.1270 v 8.1270 h 8.1270 h 8.1270 h 8.1270 v -8.1270 h -8.1270 v -8.1270 v -8.1270 h 8.1270 v 8.1270 h 8.1270 v -8.1270 h 8.1270 v 8.1270 v 8.1270 h -8.1270 v 8.1270 h 8.1270 v 8.1270 v 8.1270 h -8.1270 v -8.1270 h -8.1270 h -8.1270 v 8.1270 h 8.1270 v 8.1270 h -8.1270 v 8.1270 h 8.1270 h 8.1270 v -8.1270 h 8.1270 v 8.1270 h 8.1270 v -8.1270 h 8.1270 v 8.1270 h 8.1270 h 8.1270 v -8.1270 h -8.1270 v -8.1270 h 8.1270 v -8.1270 h -8.1270 h -8.1270 v 8.1270 h -8.1270 v -8.1270 v -8.1270 h 8.1270 v -8.1270 h -8.1270 v -8.1270 v -8.1270 h 8.1270 v 8.1270 h 8.1270 v -8.1270 h 8.1270 v 8.1270 v 8.1270 h -8.1270 v 8.1270 h 8.1270 h 8.1270 h 8.1270 v -8.1270 h -8.1270 v -8.1270 v -8.1270 h 8.1270 v 8.1270 h 8.1270 v -8.1270 h 8.1270 v 8.1270 v 8.1270 h -8.1270 v 8.1270 h 8.1270 v 8.1270 v 8.1270 h -8.1270 v -8.1270 h -8.1270 h -8.1270 v 8.1270 h 8.1270 v 8.1270 h -8.1270 v 8.1270 h 8.1270 h 8.1270 v -8.1270 h 8.1270 v 8.1270 v 8.1270 h -8.1270 v 8.1270 h 8.1270 v 8.1270 v 8.1270 h -8.1270 v -8.1270 h -8.1270 v 8.1270 h -8.1270 v -8.1270 v -8.1270 h 8.1270 v -8.1270 h -8.1270 h -8.1270 v 8.1270 h -8.1270 v -8.1270 h -8.1270 h -8.1270 v 8.1270 h 8.1270 v 8.1270 h -8.1270 v 8.1270 h 8.1270 h 8.1270 v -8.1270 h 8.1270 v 8.1270 v 8.1270 v 8.1270 h -8.1270 v -8.1270 h -8.1270 h -8.1270 v 8.1270 h 8.1270 v 8.1270 h -8.1270 v 8.1270 h 8.1270 h 8.1270 v -8.1270 h 8.1270 v 8.1270 h 8.1270 h 8.1270 v -8.1270 h -8.1270 v -8.1270 v -8.1270 h 8.1270 v 8.1270 h 8.1270 v -8.1270 h 8.1270 v 8.1270 v 8.1270 h -8.1270 v 8.1270 h 8.1270 h 8.1270 h 8.1270 v -8.1270 h -8.1270 v -8.1270 v -8.1270 h 8.1270 v 8.1270 h 8.1270 v -8.1270 h 8.1270 v 8.1270 v 8.1270 h -8.1270 v 8.1270 h 8.1270 h 8.1270 v -8.1270 h 8.1270 v 8.1270 h 8.1270 h 8.1270 v -8.1270 h -8.1270 v -8.1270 h 8.1270 v -8.1270 h -8.1270 h -8.1270 v 8.1270 h -8.1270 v -8.1270 v -8.1270 v -8.1270 h 8.1270 v 8.1270 h 8.1270 h 8.1270 v -8.1270 h -8.1270 v -8.1270 h 8.1270 v -8.1270 h -8.1270 h -8.1270 v 8.1270 h -8.1270 v -8.1270 h -8.1270 h -8.1270 v 8.1270 h 8.1270 v 8.1270 v 8.1270 h -8.1270 v -8.1270 h -8.1270 v 8.1270 h -8.1270 v -8.1270 v -8.1270 h 8.1270 v -8.1270 h -8.1270 v -8.1270 v -8.1270 h 8.1270 v 8.1270 h 8.1270 h 8.1270 v -8.1270 h -8.1270 v -8.1270 h 8.1270 v -8.1270 h -8.1270 h -8.1270 v 8.1270 h -8.1270 v -8.1270 v -8.1270 h 8.1270 v -8.1270 h -8.1270 v -8.1270 v -8.1270 h 8.1270 v 8.1270 h 8.1270 v -8.1270 h 8.1270 v 8.1270 v 8.1270 h -8.1270 v 8.1270 h 8.1270 h 8.1270 h 8.1270 v -8.1270 h -8.1270 v -8.1270 v -8.1270 h 8.1270 v 8.1270 h 8.1270 v -8.1270 h 8.1270 v 8.1270 v 8.1270 h -8.1270 v 8.1270 h 8.1270 v 8.1270 v 8.1270 h -8.1270 v -8.1270 h -8.1270 h -8.1270 v 8.1270 h 8.1270 v 8.1270 h -8.1270 v 8.1270 h 8.1270 h 8.1270 v -8.1270 h 8.1270 v 8.1270 h 8.1270 v -8.1270 h 8.1270 v 8.1270 h 8.1270 h 8.1270 v -8.1270 h -8.1270 v -8.1270 h 8.1270 v -8.1270 h -8.1270 h -8.1270 v 8.1270 h -8.1270 v -8.1270 v -8.1270 h 8.1270 v -8.1270 h -8.1270 v -8.1270 v -8.1270 h 8.1270 v 8.1270 h 8.1270 v -8.1270 h 8.1270 v 8.1270 v 8.1270 h -8.1270 v 8.1270 h 8.1270 h 8.1270 h 8.1270 v -8.1270 h -8.1270 v -8.1270 v -8.1270 h 8.1270 v 8.1270 h 8.1270 v -8.1270 h 8.1270 v 8.1270 v 8.1270 h -8.1270 v 8.1270 h 8.1270 v 8.1270 v 8.1270 h -8.1270 v -8.1270 h -8.1270 h -8.1270 v 8.1270 h 8.1270 v 8.1270 h -8.1270 v 8.1270 h 8.1270 h 8.1270 v -8.1270 h 8.1270 v 8.1270 v 8.1270 h -8.1270 v 8.1270 h 8.1270 v 8.1270 v 8.1270 h -8.1270 v -8.1270 h -8.1270 v 8.1270 h -8.1270 v -8.1270 v -8.1270 h 8.1270 v -8.1270 h -8.1270 h -8.1270 v 8.1270 h -8.1270 v -8.1270 h -8.1270 h -8.1270 v 8.1270 h 8.1270 v 8.1270 h -8.1270 v 8.1270 h 8.1270 h 8.1270 v -8.1270 h 8.1270 v 8.1270 v 8.1270 v 8.1270 h -8.1270 v -8.1270 h -8.1270 h -8.1270 v 8.1270 h 8.1270 v 8.1270 h -8.1270 v 8.1270 h 8.1270 h 8.1270 v -8.1270 h 8.1270 v 8.1270 h 8.1270 h 8.1270 v -8.1270 h -8.1270 v -8.1270 v -8.1270 h 8.1270 v 8.1270 h 8.1270 v -8.1270 h 8.1270 v 8.1270 v 8.1270 h -8.1270 v 8.1270 h 8.1270 v 8.1270 v 8.1270 h -8.1270 v -8.1270 h -8.1270 h -8.1270 v 8.1270 h 8.1270 v 8.1270 h -8.1270 v 8.1270 h 8.1270 h 8.1270 v -8.1270 h 8.1270 v 8.1270 v 8.1270 h -8.1270 v 8.1270 h 8.1270 v 8.1270 v 8.1270 h -8.1270 v -8.1270 h -8.1270 v 8.1270 h -8.1270 v -8.1270 v -8.1270 h 8.1270 v -8.1270 h -8.1270 h -8.1270 h -8.1270 v 8.1270 h 8.1270 v 8.1270 v 8.1270 h -8.1270 v -8.1270 h -8.1270 v 8.1270 h -8.1270 v -8.1270 v -8.1270 h 8.1270 v -8.1270 h -8.1270 v -8.1270 v -8.1270 h 8.1270 v 8.1270 h 8.1270 h 8.1270 v -8.1270 h -8.1270 v -8.1270 h 8.1270 v -8.1270 h -8.1270 h -8.1270 v 8.1270 h -8.1270 v -8.1270 h -8.1270 h -8.1270 v 8.1270 h 8.1270 v 8.1270 v 8.1270 h -8.1270 v -8.1270 h -8.1270 v 8.1270 h -8.1270 v -8.1270 v -8.1270 h 8.1270 v -8.1270 h -8.1270 h -8.1270 v 8.1270 h -8.1270 v -8.1270 h -8.1270 h -8.1270 v 8.1270 h 8.1270 v 8.1270 h -8.1270 v 8.1270 h 8.1270 h 8.1270 v -8.1270 h 8.1270 v 8.1270 v 8.1270 v 8.1270 h -8.1270 v -8.1270 h -8.1270 h -8.1270 v 8.1270 h 8.1270 v 8.1270 h -8.1270 v 8.1270 h 8.1270 h 8.1270 v -8.1270 h 8.1270 v 8.1270 h 8.1270 h 8.1270 v -8.1270 h -8.1270 v -8.1270 v -8.1270 h 8.1270 v 8.1270 h 8.1270 v -8.1270 h 8.1270 v 8.1270 v 8.1270 h -8.1270 v 8.1270 h 8.1270 v 8.1270 h -8.1270 v 8.1270 h 8.1270 v 8.1270 v 8.1270 h -8.1270 v -8.1270 h -8.1270 v 8.1270 h -8.1270 v -8.1270 v -8.1270 h 8.1270 v -8.1270 h -8.1270 h -8.1270 v 8.1270 h -8.1270 v -8.1270 h -8.1270 h -8.1270 v 8.1270 h 8.1270 v 8.1270 h -8.1270 v 8.1270 h 8.1270 h 8.1270 v -8.1270 h 8.1270 v 8.1270 v 8.1270 v 8.1270 h -8.1270 v -8.1270 h -8.1270 h -8.1270 v 8.1270 h 8.1270 v 8.1270 h -8.1270 v 8.1270 h 8.1270 h 8.1270 v -8.1270 h 8.1270 v 8.1270 h 8.1270 h 8.1270 v -8.1270 h -8.1270 v -8.1270 v -8.1270 h 8.1270 v 8.1270 h 8.1270 v -8.1270 h 8.1270 v 8.1270 v 8.1270 h -8.1270 v 8.1270 h 8.1270 h 8.1270 v -8.1270 h 8.1270 v 8.1270 h 8.1270 h 8.1270 v -8.1270 h -8.1270 v -8.1270 h 8.1270 v -8.1270 h -8.1270 h -8.1270 v 8.1270 h -8.1270 v -8.1270 v -8.1270 h 8.1270 v -8.1270 h -8.1270 v -8.1270 v -8.1270 h 8.1270 v 8.1270 h 8.1270 v -8.1270 h 8.1270 v 8.1270 v 8.1270 h -8.1270 v 8.1270 h 8.1270 h 8.1270 h 8.1270 v -8.1270 h -8.1270 v -8.1270 v -8.1270 h 8.1270 v 8.1270 h 8.1270 v -8.1270 h 8.1270 v 8.1270 v 8.1270 h -8.1270 v 8.1270 h 8.1270 v 8.1270 v 8.1270 h -8.1270 v -8.1270 h -8.1270 h -8.1270 v 8.1270 h 8.1270 v 8.1270 h -8.1270 v 8.1270 h 8.1270 h 8.1270 v -8.1270 h 8.1270 v 8.1270 h 8.1270 h 8.1270 v -8.1270 h -8.1270 v -8.1270 v -8.1270 h 8.1270 v 8.1270 h 8.1270 v -8.1270 h 8.1270 v 8.1270 v 8.1270 h -8.1270 v 8.1270 h 8.1270 h 8.1270 v -8.1270 h 8.1270 v 8.1270 h 8.1270 h 8.1270 v -8.1270 h -8.1270 v -8.1270 h 8.1270 v -8.1270 h -8.1270 h -8.1270 v 8.1270 h -8.1270 v -8.1270 v -8.1270 v -8.1270 h 8.1270 v 8.1270 h 8.1270 h 8.1270 v -8.1270 h -8.1270 v -8.1270 h 8.1270 v -8.1270 h -8.1270 h -8.1270 v 8.1270 h -8.1270 v -8.1270 h -8.1270 h -8.1270 v 8.1270 h 8.1270 v 8.1270 v 8.1270 h -8.1270 v -8.1270 h -8.1270 v 8.1270 h -8.1270 v -8.1270 v -8.1270 h 8.1270 v -8.1270 h -8.1270 v -8.1270 v -8.1270 h 8.1270 v 8.1270 h 8.1270 h 8.1270 v -8.1270 h -8.1270 v -8.1270 h 8.1270 v -8.1270 h -8.1270 h -8.1270 v 8.1270 h -8.1270 v -8.1270 v -8.1270 h 8.1270 v -8.1270 h -8.1270 v -8.1270 v -8.1270 h 8.1270 v 8.1270 h 8.1270 v -8.1270 h 8.1270 v 8.1270 v 8.1270 h -8.1270 v 8.1270 h 8.1270 h 8.1270 h 8.1270 v -8.1270 h -8.1270 v -8.1270 v -8.1270 h 8.1270 v 8.1270 h 8.1270 v -8.1270 h 8.1270 v 8.1270 v 8.1270 h -8.1270 v 8.1270 h 8.1270 v 8.1270 v 8.1270 h -8.1270 v -8.1270 h -8.1270 h -8.1270 v 8.1270 h 8.1270 v 8.1270 h -8.1270 v 8.1270 h 8.1270 h 8.1270 v -8.1270 h 8.1270 v 8.1270 h 8.1270 v -8.1270 h 8.1270 v 8.1270 h 8.1270 h 8.1270 v -8.1270 h -8.1270 v -8.1270 h 8.1270 v -8.1270 h -8.1270 h -8.1270 v 8.1270 h -8.1270 v -8.1270 v -8.1270 h 8.1270 v -8.1270 h -8.1270 v -8.1270 v -8.1270 h 8.1270 v 8.1270 h 8.1270 v -8.1270 h 8.1270 v 8.1270 v 8.1270 h -8.1270 v 8.1270 h 8.1270 h 8.1270 h 8.1270 v -8.1270 h -8.1270 v -8.1270 v -8.1270 h 8.1270 v 8.1270 h 8.1270 v -8.1270 h 8.1270 v 8.1270 v 8.1270 h -8.1270 v 8.1270 h 8.1270 v 8.1270 v 8.1270 h -8.1270 v -8.1270 h -8.1270 h -8.1270 v 8.1270 h 8.1270 v 8.1270 h -8.1270 v 8.1270 h 8.1270 h 8.1270 v -8.1270 h 8.1270 v 8.1270 v 8.1270 h -8.1270 v 8.1270 h 8.1270 v 8.1270 v 8.1270 h -8.1270 v -8.1270 h -8.1270 v 8.1270 h -8.1270 v -8.1270 v -8.1270 h 8.1270 v -8.1270 h -8.1270 h -8.1270 v 8.1270 h -8.1270 v -8.1270 h -8.1270 h -8.1270 v 8.1270 h 8.1270 v 8.1270 h -8.1270 v 8.1270 h 8.1270 h 8.1270 v -8.1270 h 8.1270 v 8.1270 v 8.1270 v 8.1270 h -8.1270 v -8.1270 h -8.1270 h -8.1270 v 8.1270 h 8.1270 v 8.1270 h -8.1270 v 8.1270 h 8.1270 h 8.1270 v -8.1270 h 8.1270 v 8.1270 h 8.1270 h 8.1270 v -8.1270 h -8.1270 v -8.1270 v -8.1270 h 8.1270 v 8.1270 h 8.1270 v -8.1270 h 8.1270 v 8.1270 v 8.1270 h -8.1270 v 8.1270 h 8.1270 h 8.1270 v -8.1270 h 8.1270 v 8.1270 h 8.1270 h 8.1270 v -8.1270 h -8.1270 v -8.1270 h 8.1270 v -8.1270 h -8.1270 h -8.1270 v 8.1270 h -8.1270 v -8.1270 v -8.1270 h 8.1270 v -8.1270 h -8.1270 v -8.1270 v -8.1270 h 8.1270 v 8.1270 h 8.1270 v -8.1270 h 8.1270 v 8.1270 v 8.1270 h -8.1270 v 8.1270 h 8.1270 h 8.1270 h 8.1270 v -8.1270 h -8.1270 v -8.1270 v -8.1270 h 8.1270 v 8.1270 h 8.1270 v -8.1270 h 8.1270 v 8.1270 v 8.1270 h -8.1270 v 8.1270 h 8.1270 v 8.1270 v 8.1270 h -8.1270 v -8.1270 h -8.1270 h -8.1270 v 8.1270 h 8.1270 v 8.1270 h -8.1270 v 8.1270 h 8.1270 h 8.1270 v -8.1270 h 8.1270 v 8.1270 h 8.1270 h 8.1270 v -8.1270 h -8.1270 v -8.1270 v -8.1270 h 8.1270 v 8.1270 h 8.1270 v -8.1270 h 8.1270 v 8.1270 v 8.1270 h -8.1270 v 8.1270 h 8.1270 h 8.1270 v -8.1270 h 8.1270 v 8.1270 h 8.1270 h 8.1270 v -8.1270 h -8.1270 v -8.1270 h 8.1270 v -8.1270 h -8.1270 h -8.1270 v 8.1270 h -8.1270 v -8.1270 v -8.1270 v -8.1270 h 8.1270 v 8.1270 h 8.1270 h 8.1270 v -8.1270 h -8.1270 v -8.1270 h 8.1270 v -8.1270 h -8.1270 h -8.1270 v 8.1270 h -8.1270 v -8.1270 h -8.1270 h -8.1270 v 8.1270 h 8.1270 v 8.1270 v 8.1270 h -8.1270 v -8.1270 h -8.1270 v 8.1270 h -8.1270 v -8.1270 v -8.1270 h 8.1270 v -8.1270 h -8.1270 v -8.1270 h 8.1270 v -8.1270 h -8.1270 v -8.1270 v -8.1270 h 8.1270 v 8.1270 h 8.1270 v -8.1270 h 8.1270 v 8.1270 v 8.1270 h -8.1270 v 8.1270 h 8.1270 h 8.1270 v -8.1270 h 8.1270 v 8.1270 h 8.1270 h 8.1270 v -8.1270 h -8.1270 v -8.1270 h 8.1270 v -8.1270 h -8.1270 h -8.1270 v 8.1270 h -8.1270 v -8.1270 v -8.1270 v -8.1270 h 8.1270 v 8.1270 h 8.1270 h 8.1270 v -8.1270 h -8.1270 v -8.1270 h 8.1270 v -8.1270 h -8.1270 h -8.1270 v 8.1270 h -8.1270 v -8.1270 h -8.1270 h -8.1270 v 8.1270 h 8.1270 v 8.1270 v 8.1270 h -8.1270 v -8.1270 h -8.1270 v 8.1270 h -8.1270 v -8.1270 v -8.1270 h 8.1270 v -8.1270 h -8.1270 h -8.1270 v 8.1270 h -8.1270 v -8.1270 h -8.1270 h -8.1270 v 8.1270 h 8.1270 v 8.1270 h -8.1270 v 8.1270 h 8.1270 h 8.1270 v -8.1270 h 8.1270 v 8.1270 v 8.1270 h -8.1270 v 8.1270 h 8.1270 v 8.1270 v 8.1270 h -8.1270 v -8.1270 h -8.1270 v 8.1270 h -8.1270 v -8.1270 v -8.1270 h 8.1270 v -8.1270 h -8.1270 h -8.1270 h -8.1270 v 8.1270 h 8.1270 v 8.1270 v 8.1270 h -8.1270 v -8.1270 h -8.1270 v 8.1270 h -8.1270 v -8.1270 v -8.1270 h 8.1270 v -8.1270 h -8.1270 v -8.1270 v -8.1270 h 8.1270 v 8.1270 h 8.1270 h 8.1270 v -8.1270 h -8.1270 v -8.1270 h 8.1270 v -8.1270 h -8.1270 h -8.1270 v 8.1270 h -8.1270 v -8.1270 v -8.1270 v -8.1270 h 8.1270 v 8.1270 h 8.1270 h 8.1270 v -8.1270 h -8.1270 v -8.1270 h 8.1270 v -8.1270 h -8.1270 h -8.1270 v 8.1270 h -8.1270 v -8.1270 v -8.1270 h 8.1270 v -8.1270 h -8.1270 v -8.1270 v -8.1270 h 8.1270 v 8.1270 h 8.1270 v -8.1270 h 8.1270 v 8.1270 v 8.1270 h -8.1270 v 8.1270 h 8.1270 h 8.1270 h 8.1270 v -8.1270 h -8.1270 v -8.1270 v -8.1270 h 8.1270 v 8.1270 h 8.1270 v -8.1270 h 8.1270 v 8.1270 v 8.1270 h -8.1270 v 8.1270 h 8.1270 v 8.1270 v 8.1270 h -8.1270 v -8.1270 h -8.1270 h -8.1270 v 8.1270 h 8.1270 v 8.1270 h -8.1270 v 8.1270 h 8.1270 h 8.1270 v -8.1270 h 8.1270 v 8.1270 h 8.1270 h 8.1270 v -8.1270 h -8.1270 v -8.1270 v -8.1270 h 8.1270 v 8.1270 h 8.1270 v -8.1270 h 8.1270 v 8.1270 v 8.1270 h -8.1270 v 8.1270 h 8.1270 h 8.1270 v -8.1270 h 8.1270 v 8.1270 h 8.1270 h 8.1270 v -8.1270 h -8.1270 v -8.1270 h 8.1270 v -8.1270 h -8.1270 h -8.1270 v 8.1270 h -8.1270 v -8.1270 v -8.1270 v -8.1270 h 8.1270 v 8.1270 h 8.1270 h 8.1270 v -8.1270 h -8.1270 v -8.1270 h 8.1270 v -8.1270 h -8.1270 h -8.1270 v 8.1270 h -8.1270 v -8.1270 h -8.1270 h -8.1270 v 8.1270 h 8.1270 v 8.1270 v 8.1270 h -8.1270 v -8.1270 h -8.1270 v 8.1270 h -8.1270 v -8.1270 v -8.1270 h 8.1270 v -8.1270 h -8.1270 v -8.1270 h 8.1270 v -8.1270 h -8.1270 v -8.1270 v -8.1270 h 8.1270 v 8.1270 h 8.1270 v -8.1270 h 8.1270 v 8.1270 v 8.1270 h -8.1270 v 8.1270 h 8.1270 h 8.1270 v -8.1270 h 8.1270 v 8.1270 h 8.1270 h 8.1270 v -8.1270 h -8.1270 v -8.1270 h 8.1270 v -8.1270 h -8.1270 h -8.1270 v 8.1270 h -8.1270 v -8.1270 v -8.1270 v -8.1270 h 8.1270 v 8.1270 h 8.1270 h 8.1270 v -8.1270 h -8.1270 v -8.1270 h 8.1270 v -8.1270 h -8.1270 h -8.1270 v 8.1270 h -8.1270 v -8.1270 h -8.1270 h -8.1270 v 8.1270 h 8.1270 v 8.1270 v 8.1270 h -8.1270 v -8.1270 h -8.1270 v 8.1270 h -8.1270 v -8.1270 v -8.1270 h 8.1270 v -8.1270 h -8.1270 h -8.1270 v 8.1270 h -8.1270 v -8.1270 h -8.1270 h -8.1270 v 8.1270 h 8.1270 v 8.1270 h -8.1270 v 8.1270 h 8.1270 h 8.1270 v -8.1270 h 8.1270 v 8.1270 v 8.1270 h -8.1270 v 8.1270 h 8.1270 v 8.1270 v 8.1270 h -8.1270 v -8.1270 h -8.1270 v 8.1270 h -8.1270 v -8.1270 v -8.1270 h 8.1270 v -8.1270 h -8.1270 h -8.1270 h -8.1270 v 8.1270 h 8.1270 v 8.1270 v 8.1270 h -8.1270 v -8.1270 h -8.1270 v 8.1270 h -8.1270 v -8.1270 v -8.1270 h 8.1270 v -8.1270 h -8.1270 v -8.1270 v -8.1270 h 8.1270 v 8.1270 h 8.1270 h 8.1270 v -8.1270 h -8.1270 v -8.1270 h 8.1270 v -8.1270 h -8.1270 h -8.1270 v 8.1270 h -8.1270 v -8.1270 h -8.1270 h -8.1270 v 8.1270 h 8.1270 v 8.1270 v 8.1270 h -8.1270 v -8.1270 h -8.1270 v 8.1270 h -8.1270 v -8.1270 v -8.1270 h 8.1270 v -8.1270 h -8.1270 h -8.1270 v 8.1270 h -8.1270 v -8.1270 h -8.1270 h -8.1270 v 8.1270 h 8.1270 v 8.1270 h -8.1270 v 8.1270 h 8.1270 h 8.1270 v -8.1270 h 8.1270 v 8.1270 v 8.1270 v 8.1270 h -8.1270 v -8.1270 h -8.1270 h -8.1270 v 8.1270 h 8.1270 v 8.1270 h -8.1270 v 8.1270 h 8.1270 h 8.1270 v -8.1270 h 8.1270 v 8.1270 h 8.1270 h 8.1270 v -8.1270 h -8.1270 v -8.1270 v -8.1270 h 8.1270 v 8.1270 h 8.1270 v -8.1270 h 8.1270 v 8.1270 v 8.1270 h -8.1270 v 8.1270 h 8.1270 v 8.1270 v 8.1270 h -8.1270 v -8.1270 h -8.1270 h -8.1270 v 8.1270 h 8.1270 v 8.1270 h -8.1270 v 8.1270 h 8.1270 h 8.1270 v -8.1270 h 8.1270 v 8.1270 v 8.1270 h -8.1270 v 8.1270 h 8.1270 v 8.1270 v 8.1270 h -8.1270 v -8.1270 h -8.1270 v 8.1270 h -8.1270 v -8.1270 v -8.1270 h 8.1270 v -8.1270 h -8.1270 h -8.1270 h -8.1270 v 8.1270 h 8.1270 v 8.1270 v 8.1270 h -8.1270 v -8.1270 h -8.1270 v 8.1270 h -8.1270 v -8.1270 v -8.1270 h 8.1270 v -8.1270 h -8.1270 v -8.1270 v -8.1270 h 8.1270 v 8.1270 h 8.1270 h 8.1270 v -8.1270 h -8.1270 v -8.1270 h 8.1270 v -8.1270 h -8.1270 h -8.1270 v 8.1270 h -8.1270 v -8.1270 h -8.1270 v 8.1270 h -8.1270 v -8.1270 h -8.1270 h -8.1270 v 8.1270 h 8.1270 v 8.1270 h -8.1270 v 8.1270 h 8.1270 h 8.1270 v -8.1270 h 8.1270 v 8.1270 v 8.1270 h -8.1270 v 8.1270 h 8.1270 v 8.1270 v 8.1270 h -8.1270 v -8.1270 h -8.1270 v 8.1270 h -8.1270 v -8.1270 v -8.1270 h 8.1270 v -8.1270 h -8.1270 h -8.1270 h -8.1270 v 8.1270 h 8.1270 v 8.1270 v 8.1270 h -8.1270 v -8.1270 h -8.1270 v 8.1270 h -8.1270 v -8.1270 v -8.1270 h 8.1270 v -8.1270 h -8.1270 v -8.1270 v -8.1270 h 8.1270 v 8.1270 h 8.1270 h 8.1270 v -8.1270 h -8.1270 v -8.1270 h 8.1270 v -8.1270 h -8.1270 h -8.1270 v 8.1270 h -8.1270 v -8.1270 v -8.1270 h 8.1270 v -8.1270 h -8.1270 v -8.1270 v -8.1270 h 8.1270 v 8.1270 h 8.1270 v -8.1270 h 8.1270 v 8.1270 v 8.1270 h -8.1270 v 8.1270 h 8.1270 h 8.1270 v -8.1270 h 8.1270 v 8.1270 h 8.1270 h 8.1270 v -8.1270 h -8.1270 v -8.1270 h 8.1270 v -8.1270 h -8.1270 h -8.1270 v 8.1270 h -8.1270 v -8.1270 v -8.1270 v -8.1270 h 8.1270 v 8.1270 h 8.1270 h 8.1270 v -8.1270 h -8.1270 v -8.1270 h 8.1270 v -8.1270 h -8.1270 h -8.1270 v 8.1270 h -8.1270 v -8.1270 h -8.1270 h -8.1270 v 8.1270 h 8.1270 v 8.1270 v 8.1270 h -8.1270 v -8.1270 h -8.1270 v 8.1270 h -8.1270 v -8.1270 v -8.1270 h 8.1270 v -8.1270 h -8.1270 v -8.1270 h 8.1270 v -8.1270 h -8.1270 v -8.1270 v -8.1270 h 8.1270 v 8.1270 h 8.1270 v -8.1270 h 8.1270 v 8.1270 v 8.1270 h -8.1270 v 8.1270 h 8.1270 h 8.1270 v -8.1270 h 8.1270 v 8.1270 h 8.1270 h 8.1270 v -8.1270 h -8.1270 v -8.1270 h 8.1270 v -8.1270 h -8.1270 h -8.1270 v 8.1270 h -8.1270 v -8.1270 v -8.1270 v -8.1270 h 8.1270 v 8.1270 h 8.1270 h 8.1270 v -8.1270 h -8.1270 v -8.1270 h 8.1270 v -8.1270 h -8.1270 h -8.1270 v 8.1270 h -8.1270 v -8.1270 h -8.1270 h -8.1270 v 8.1270 h 8.1270 v 8.1270 v 8.1270 h -8.1270 v -8.1270 h -8.1270 v 8.1270 h -8.1270 v -8.1270 v -8.1270 h 8.1270 v -8.1270 h -8.1270 v -8.1270 v -8.1270 h 8.1270 v 8.1270 h 8.1270 h 8.1270 v -8.1270 h -8.1270 v -8.1270 h 8.1270 v -8.1270 h -8.1270 h -8.1270 v 8.1270 h -8.1270 v -8.1270 v -8.1270 h 8.1270 v -8.1270 h -8.1270 v -8.1270 v -8.1270 h 8.1270 v 8.1270 h 8.1270 v -8.1270 h 8.1270 v 8.1270 v 8.1270 h -8.1270 v 8.1270 h 8.1270 h 8.1270 h 8.1270 v -8.1270 h -8.1270 v -8.1270 v -8.1270 h 8.1270 v 8.1270 h 8.1270 v -8.1270 h 8.1270 v 8.1270 v 8.1270 h -8.1270 v 8.1270 h 8.1270 v 8.1270 v 8.1270 h -8.1270 v -8.1270 h -8.1270 h -8.1270 v 8.1270 h 8.1270 v 8.1270 h -8.1270 v 8.1270 h 8.1270 h 8.1270 v -8.1270 h 8.1270 v 8.1270 h 8.1270 v -8.1270 h 8.1270 v 8.1270 h 8.1270 h 8.1270 v -8.1270 h -8.1270 v -8.1270 h 8.1270 v -8.1270 h -8.1270 h -8.1270 v 8.1270 h -8.1270 v -8.1270 v -8.1270 h 8.1270 v -8.1270 h -8.1270 v -8.1270 v -8.1270 h 8.1270 v 8.1270 h 8.1270 v -8.1270 h 8.1270 v 8.1270 v 8.1270 h -8.1270 v 8.1270 h 8.1270 h 8.1270 h 8.1270 v -8.1270 h -8.1270 v -8.1270 v -8.1270 h 8.1270 v 8.1270 h 8.1270 v -8.1270 h 8.1270 v 8.1270 v 8.1270 h -8.1270 v 8.1270 h 8.1270 v 8.1270 v 8.1270 h -8.1270 v -8.1270 h -8.1270 h -8.1270 v 8.1270 h 8.1270 v 8.1270 h -8.1270 v 8.1270 h 8.1270 h 8.1270 v -8.1270 h 8.1270 v 8.1270 v 8.1270 h -8.1270 v 8.1270 h 8.1270 v 8.1270 v 8.1270 h -8.1270 v -8.1270 h -8.1270 v 8.1270 h -8.1270 v -8.1270 v -8.1270 h 8.1270 v -8.1270 h -8.1270 h -8.1270 v 8.1270 h -8.1270 v -8.1270 h -8.1270 h -8.1270 v 8.1270 h 8.1270 v 8.1270 h -8.1270 v 8.1270 h 8.1270 h 8.1270 v -8.1270 h 8.1270 v 8.1270 v 8.1270 v 8.1270 h -8.1270 v -8.1270 h -8.1270 h -8.1270 v 8.1270 h 8.1270 v 8.1270 h -8.1270 v 8.1270 h 8.1270 h 8.1270 v -8.1270 h 8.1270 v 8.1270 h 8.1270 h 8.1270 v -8.1270 h -8.1270 v -8.1270 v -8.1270 h 8.1270 v 8.1270 h 8.1270 v -8.1270 h 8.1270 v 8.1270 v 8.1270 h -8.1270 v 8.1270 h 8.1270 h 8.1270 v -8.1270 h 8.1270 v 8.1270 h 8.1270 h 8.1270 v -8.1270 h -8.1270 v -8.1270 h 8.1270 v -8.1270 h -8.1270 h -8.1270 v 8.1270 h -8.1270 v -8.1270 v -8.1270 h 8.1270 v -8.1270 h -8.1270 v -8.1270 v -8.1270 h 8.1270 v 8.1270 h 8.1270 v -8.1270 h 8.1270 v 8.1270 v 8.1270 h -8.1270 v 8.1270 h 8.1270 h 8.1270 h 8.1270 v -8.1270 h -8.1270 v -8.1270 v -8.1270 h 8.1270 v 8.1270 h 8.1270 v -8.1270 h 8.1270 v 8.1270 v 8.1270 h -8.1270 v 8.1270 h 8.1270 v 8.1270 v 8.1270 h -8.1270 v -8.1270 h -8.1270 h -8.1270 v 8.1270 h 8.1270 v 8.1270 h -8.1270 v 8.1270 h 8.1270 h 8.1270 v -8.1270 h 8.1270 v 8.1270 h 8.1270 h 8.1270 v -8.1270 h -8.1270 v -8.1270 v -8.1270 h 8.1270 v 8.1270 h 8.1270 v -8.1270 h 8.1270 v 8.1270 v 8.1270 h -8.1270 v 8.1270 h 8.1270 h 8.1270 v -8.1270 h 8.1270 v 8.1270 h 8.1270 h 8.1270 v -8.1270 h -8.1270 v -8.1270 h 8.1270 v -8.1270 h -8.1270 h -8.1270 v 8.1270 h -8.1270 v -8.1270 v -8.1270 v -8.1270 h 8.1270 v 8.1270 h 8.1270 h 8.1270 v -8.1270 h -8.1270 v -8.1270 h 8.1270 v -8.1270 h -8.1270 h -8.1270 v 8.1270 h -8.1270 v -8.1270 h -8.1270 h -8.1270 v 8.1270 h 8.1270 v 8.1270 v 8.1270 h -8.1270 v -8.1270 h -8.1270 v 8.1270 h -8.1270 v -8.1270 v -8.1270 h 8.1270 v -8.1270 h -8.1270 v -8.1270 h 8.1270 v -8.1270 h -8.1270 v -8.1270 v -8.1270 h 8.1270 v 8.1270 h 8.1270 v -8.1270 h 8.1270 v 8.1270 v 8.1270 h -8.1270 v 8.1270 h 8.1270 h 8.1270 v -8.1270 h 8.1270 v 8.1270 h 8.1270 h 8.1270 v -8.1270 h -8.1270 v -8.1270 h 8.1270 v -8.1270 h -8.1270 h -8.1270 v 8.1270 h -8.1270 v -8.1270 v -8.1270 v -8.1270 h 8.1270 v 8.1270 h 8.1270 h 8.1270 v -8.1270 h -8.1270 v -8.1270 h 8.1270 v -8.1270 h -8.1270 h -8.1270 v 8.1270 h -8.1270 v -8.1270 h -8.1270 h -8.1270 v 8.1270 h 8.1270 v 8.1270 v 8.1270 h -8.1270 v -8.1270 h -8.1270 v 8.1270 h -8.1270 v -8.1270 v -8.1270 h 8.1270 v -8.1270 h -8.1270 h -8.1270 v 8.1270 h -8.1270 v -8.1270 h -8.1270 h -8.1270 v 8.1270 h 8.1270 v 8.1270 h -8.1270 v 8.1270 h 8.1270 h 8.1270 v -8.1270 h 8.1270 v 8.1270 v 8.1270 h -8.1270 v 8.1270 h 8.1270 v 8.1270 v 8.1270 h -8.1270 v -8.1270 h -8.1270 v 8.1270 h -8.1270 v -8.1270 v -8.1270 h 8.1270 v -8.1270 h -8.1270 h -8.1270 h -8.1270 v 8.1270 h 8.1270 v 8.1270 v 8.1270 h -8.1270 v -8.1270 h -8.1270 v 8.1270 h -8.1270 v -8.1270 v -8.1270 h 8.1270 v -8.1270 h -8.1270 v -8.1270 v -8.1270 h 8.1270 v 8.1270 h 8.1270 h 8.1270 v -8.1270 h -8.1270 v -8.1270 h 8.1270 v -8.1270 h -8.1270 h -8.1270 v 8.1270 h -8.1270 v -8.1270 v -8.1270 v -8.1270 h 8.1270 v 8.1270 h 8.1270 h 8.1270 v -8.1270 h -8.1270 v -8.1270 h 8.1270 v -8.1270 h -8.1270 h -8.1270 v 8.1270 h -8.1270 v -8.1270 v -8.1270 h 8.1270 v -8.1270 h -8.1270 v -8.1270 v -8.1270 h 8.1270 v 8.1270 h 8.1270 v -8.1270 h 8.1270 v 8.1270 v 8.1270 h -8.1270 v 8.1270 h 8.1270 h 8.1270 h 8.1270 v -8.1270 h -8.1270 v -8.1270 v -8.1270 h 8.1270 v 8.1270 h 8.1270 v -8.1270 h 8.1270 v 8.1270 v 8.1270 h -8.1270 v 8.1270 h 8.1270 v 8.1270 v 8.1270 h -8.1270 v -8.1270 h -8.1270 h -8.1270 v 8.1270 h 8.1270 v 8.1270 h -8.1270 v 8.1270 h 8.1270 h 8.1270 v -8.1270 h 8.1270 v 8.1270 h 8.1270 h 8.1270 v -8.1270 h -8.1270 v -8.1270 v -8.1270 h 8.1270 v 8.1270 h 8.1270 v -8.1270 h 8.1270 v 8.1270 v 8.1270 h -8.1270 v 8.1270 h 8.1270 h 8.1270 v -8.1270 h 8.1270 v 8.1270 h 8.1270 h 8.1270 v -8.1270 h -8.1270 v -8.1270 h 8.1270 v -8.1270 h -8.1270 h -8.1270 v 8.1270 h -8.1270 v -8.1270 v -8.1270 v -8.1270 h 8.1270 v 8.1270 h 8.1270 h 8.1270 v -8.1270 h -8.1270 v -8.1270 h 8.1270 v -8.1270 h -8.1270 h -8.1270 v 8.1270 h -8.1270 v -8.1270 h -8.1270 h -8.1270 v 8.1270 h 8.1270 v 8.1270 v 8.1270 h -8.1270 v -8.1270 h -8.1270 v 8.1270 h -8.1270 v -8.1270 v -8.1270 h 8.1270 v -8.1270 h -8.1270 v -8.1270 h 8.1270 v -8.1270 h -8.1270 v -8.1270 v -8.1270 h 8.1270 v 8.1270 h 8.1270 v -8.1270 h 8.1270 v 8.1270 v 8.1270 h -8.1270 v 8.1270 h 8.1270 h 8.1270 v -8.1270 h 8.1270 v 8.1270 h 8.1270 h 8.1270 v -8.1270 h -8.1270 v -8.1270 h 8.1270 v -8.1270 h -8.1270 h -8.1270 v 8.1270 h -8.1270 v -8.1270 v -8.1270 v -8.1270 h 8.1270 v 8.1270 h 8.1270 h 8.1270 v -8.1270 h -8.1270 v -8.1270 h 8.1270 v -8.1270 h -8.1270 h -8.1270 v 8.1270 h -8.1270 v -8.1270 h -8.1270 h -8.1270 v 8.1270 h 8.1270 v 8.1270 v 8.1270 h -8.1270 v -8.1270 h -8.1270 v 8.1270 h -8.1270 v -8.1270 v -8.1270 h 8.1270 v -8.1270 h -8.1270 h -8.1270 v 8.1270 h -8.1270 v -8.1270 h -8.1270 h -8.1270 v 8.1270 h 8.1270 v 8.1270 h -8.1270 v 8.1270 h 8.1270 h 8.1270 v -8.1270 h 8.1270 v 8.1270 v 8.1270 h -8.1270 v 8.1270 h 8.1270 v 8.1270 v 8.1270 h -8.1270 v -8.1270 h -8.1270 v 8.1270 h -8.1270 v -8.1270 v -8.1270 h 8.1270 v -8.1270 h -8.1270 h -8.1270 h -8.1270 v 8.1270 h 8.1270 v 8.1270 v 8.1270 h -8.1270 v -8.1270 h -8.1270 v 8.1270 h -8.1270 v -8.1270 v -8.1270 h 8.1270 v -8.1270 h -8.1270 v -8.1270 v -8.1270 h 8.1270 v 8.1270 h 8.1270 h 8.1270 v -8.1270 h -8.1270 v -8.1270 h 8.1270 v -8.1270 h -8.1270 h -8.1270 v 8.1270 h -8.1270 v -8.1270 h -8.1270 h -8.1270 v 8.1270 h 8.1270 v 8.1270 v 8.1270 h -8.1270 v -8.1270 h -8.1270 v 8.1270 h -8.1270 v -8.1270 v -8.1270 h 8.1270 v -8.1270 h -8.1270 h -8.1270 v 8.1270 h -8.1270 v -8.1270 h -8.1270 h -8.1270 v 8.1270 h 8.1270 v 8.1270 h -8.1270 v 8.1270 h 8.1270 h 8.1270 v -8.1270 h 8.1270 v 8.1270 v 8.1270 v 8.1270 h -8.1270 v -8.1270 h -8.1270 h -8.1270 v 8.1270 h 8.1270 v 8.1270 h -8.1270 v 8.1270 h 8.1270 h 8.1270 v -8.1270 h 8.1270 v 8.1270 h 8.1270 h 8.1270 v -8.1270 h -8.1270 v -8.1270 v -8.1270 h 8.1270 v 8.1270 h 8.1270 v -8.1270 h 8.1270 v 8.1270 v 8.1270 h -8.1270 v 8.1270 h 8.1270 v 8.1270 v 8.1270 h -8.1270 v -8.1270 h -8.1270 h -8.1270 v 8.1270 h 8.1270 v 8.1270 h -8.1270 v 8.1270 h 8.1270 h 8.1270 v -8.1270 h 8.1270 v 8.1270 v 8.1270 h -8.1270 v 8.1270 h 8.1270 v 8.1270 v 8.1270 h -8.1270 v -8.1270 h -8.1270 v 8.1270 h -8.1270 v -8.1270 v -8.1270 h 8.1270 v -8.1270 h -8.1270 h -8.1270 h -8.1270 v 8.1270 h 8.1270 v 8.1270 v 8.1270 h -8.1270 v -8.1270 h -8.1270 v 8.1270 h -8.1270 v -8.1270 v -8.1270 h 8.1270 v -8.1270 h -8.1270 v -8.1270 v -8.1270 h 8.1270 v 8.1270 h 8.1270 h 8.1270 v -8.1270 h -8.1270 v -8.1270 h 8.1270 v -8.1270 h -8.1270 h -8.1270 v 8.1270 h -8.1270 v -8.1270 h -8.1270 v 8.1270 h -8.1270 v -8.1270 h -8.1270 h -8.1270 v 8.1270 h 8.1270 v 8.1270 h -8.1270 v 8.1270 h 8.1270 h 8.1270 v -8.1270 h 8.1270 v 8.1270 v 8.1270 h -8.1270 v 8.1270 h 8.1270 v 8.1270 v 8.1270 h -8.1270 v -8.1270 h -8.1270 v 8.1270 h -8.1270 v -8.1270 v -8.1270 h 8.1270 v -8.1270 h -8.1270 h -8.1270 h -8.1270 v 8.1270 h 8.1270 v 8.1270 v 8.1270 h -8.1270 v -8.1270 h -8.1270 v 8.1270 h -8.1270 v -8.1270 v -8.1270 h 8.1270 v -8.1270 h -8.1270 v -8.1270 v -8.1270 h 8.1270 v 8.1270 h 8.1270 h 8.1270 v -8.1270 h -8.1270 v -8.1270 h 8.1270 v -8.1270 h -8.1270 h -8.1270 v 8.1270 h -8.1270 v -8.1270 v -8.1270 h 8.1270 v -8.1270 h -8.1270 v -8.1270 v -8.1270 h 8.1270 v 8.1270 h 8.1270 v -8.1270 h 8.1270 v 8.1270 v 8.1270 h -8.1270 v 8.1270 h 8.1270 h 8.1270 v -8.1270 h 8.1270 v 8.1270 h 8.1270 h 8.1270 v -8.1270 h -8.1270 v -8.1270 h 8.1270 v -8.1270 h -8.1270 h -8.1270 v 8.1270 h -8.1270 v -8.1270 v -8.1270 v -8.1270 h 8.1270 v 8.1270 h 8.1270 h 8.1270 v -8.1270 h -8.1270 v -8.1270 h 8.1270 v -8.1270 h -8.1270 h -8.1270 v 8.1270 h -8.1270 v -8.1270 h -8.1270 h -8.1270 v 8.1270 h 8.1270 v 8.1270 v 8.1270 h -8.1270 v -8.1270 h -8.1270 v 8.1270 h -8.1270 v -8.1270 v -8.1270 h 8.1270 v -8.1270 h -8.1270 h -8.1270 v 8.1270 h -8.1270 v -8.1270 h -8.1270 h -8.1270 v 8.1270 h 8.1270 v 8.1270 h -8.1270 v 8.1270 h 8.1270 h 8.1270 v -8.1270 h 8.1270 v 8.1270 v 8.1270 h -8.1270 v 8.1270 h 8.1270 v 8.1270 v 8.1270 h -8.1270 v -8.1270 h -8.1270 v 8.1270 h -8.1270 v -8.1270 v -8.1270 h 8.1270 v -8.1270 h -8.1270 h -8.1270 h -8.1270 v 8.1270 h 8.1270 v 8.1270 v 8.1270 h -8.1270 v -8.1270 h -8.1270 v 8.1270 h -8.1270 v -8.1270 v -8.1270 h 8.1270 v -8.1270 h -8.1270 v -8.1270 v -8.1270 h 8.1270 v 8.1270 h 8.1270 h 8.1270 v -8.1270 h -8.1270 v -8.1270 h 8.1270 v -8.1270 h -8.1270 h -8.1270 v 8.1270 h -8.1270 v -8.1270 h -8.1270 h -8.1270 v 8.1270 h 8.1270 v 8.1270 v 8.1270 h -8.1270 v -8.1270 h -8.1270 v 8.1270 h -8.1270 v -8.1270 v -8.1270 h 8.1270 v -8.1270 h -8.1270 h -8.1270 v 8.1270 h -8.1270 v -8.1270 h -8.1270 h -8.1270 v 8.1270 h 8.1270 v 8.1270 h -8.1270 v 8.1270 h 8.1270 h 8.1270 v -8.1270 h 8.1270 v 8.1270 v 8.1270 v 8.1270 h -8.1270 v -8.1270 h -8.1270 h -8.1270 v 8.1270 h 8.1270 v 8.1270 h -8.1270 v 8.1270 h 8.1270 h 8.1270 v -8.1270 h 8.1270 v 8.1270 h 8.1270 h 8.1270 v -8.1270 h -8.1270 v -8.1270 v -8.1270 h 8.1270 v 8.1270 h 8.1270 v -8.1270 h 8.1270 v 8.1270 v 8.1270 h -8.1270 v 8.1270 h 8.1270 v 8.1270 h -8.1270 v 8.1270 h 8.1270 v 8.1270 v 8.1270 h -8.1270 v -8.1270 h -8.1270 v 8.1270 h -8.1270 v -8.1270 v -8.1270 h 8.1270 v -8.1270 h -8.1270 h -8.1270 v 8.1270 h -8.1270 v -8.1270 h -8.1270 h -8.1270 v 8.1270 h 8.1270 v 8.1270 h -8.1270 v 8.1270 h 8.1270 h 8.1270 v -8.1270 h 8.1270 v 8.1270 v 8.1270 v 8.1270 h -8.1270 v -8.1270 h -8.1270 h -8.1270 v 8.1270 h 8.1270 v 8.1270 h -8.1270 v 8.1270 h 8.1270 h 8.1270 v -8.1270 h 8.1270 v 8.1270 h 8.1270 h 8.1270 v -8.1270 h -8.1270 v -8.1270 v -8.1270 h 8.1270 v 8.1270 h 8.1270 v -8.1270 h 8.1270 v 8.1270 v 8.1270 h -8.1270 v 8.1270 h 8.1270 h 8.1270 v -8.1270 h 8.1270 v 8.1270 h 8.1270 h 8.1270 v -8.1270 h -8.1270 v -8.1270 h 8.1270 v -8.1270 h -8.1270 h -8.1270 v 8.1270 h -8.1270 v -8.1270 v -8.1270 h 8.1270 v -8.1270 h -8.1270 v -8.1270 v -8.1270 h 8.1270 v 8.1270 h 8.1270 v -8.1270 h 8.1270 v 8.1270 v 8.1270 h -8.1270 v 8.1270 h 8.1270 h 8.1270 h 8.1270 v -8.1270 h -8.1270 v -8.1270 v -8.1270 h 8.1270 v 8.1270 h 8.1270 v -8.1270 h 8.1270 v 8.1270 v 8.1270 h -8.1270 v 8.1270 h 8.1270 v 8.1270 v 8.1270 h -8.1270 v -8.1270 h -8.1270 h -8.1270 v 8.1270 h 8.1270 v 8.1270 h -8.1270 v 8.1270 h 8.1270 h 8.1270 v -8.1270 h 8.1270 v 8.1270 v 8.1270 h -8.1270 v 8.1270 h 8.1270 v 8.1270 v 8.1270 h -8.1270 v -8.1270 h -8.1270 v 8.1270 h -8.1270 v -8.1270 v -8.1270 h 8.1270 v -8.1270 h -8.1270 h -8.1270 v 8.1270 h -8.1270 v -8.1270 h -8.1270 h -8.1270 v 8.1270 h 8.1270 v 8.1270 h -8.1270 v 8.1270 h 8.1270 h 8.1270 v -8.1270 h 8.1270 v 8.1270 v 8.1270 v 8.1270 h -8.1270 v -8.1270 h -8.1270 h -8.1270 v 8.1270 h 8.1270 v 8.1270 h -8.1270 v 8.1270 h 8.1270 h 8.1270 v -8.1270 h 8.1270 v 8.1270 h 8.1270 h 8.1270 v -8.1270 h -8.1270 v -8.1270 v -8.1270 h 8.1270 v 8.1270 h 8.1270 v -8.1270 h 8.1270 v 8.1270 v 8.1270 h -8.1270 v 8.1270 h 8.1270 v 8.1270 v 8.1270 h -8.1270 v -8.1270 h -8.1270 h -8.1270 v 8.1270 h 8.1270 v 8.1270 h -8.1270 v 8.1270 h 8.1270 h 8.1270 v -8.1270 h 8.1270 v 8.1270 v 8.1270 h -8.1270 v 8.1270 h 8.1270 v 8.1270 v 8.1270 h -8.1270 v -8.1270 h -8.1270 v 8.1270 h -8.1270 v -8.1270 v -8.1270 h 8.1270 v -8.1270 h -8.1270 h -8.1270 h -8.1270 v 8.1270 h 8.1270 v 8.1270 v 8.1270 h -8.1270 v -8.1270 h -8.1270 v 8.1270 h -8.1270 v -8.1270 v -8.1270 h 8.1270 v -8.1270 h -8.1270 v -8.1270 v -8.1270 h 8.1270 v 8.1270 h 8.1270 h 8.1270 v -8.1270 h -8.1270 v -8.1270 h 8.1270 v -8.1270 h -8.1270 h -8.1270 v 8.1270 h -8.1270 v -8.1270 h -8.1270 v 8.1270 h -8.1270 v -8.1270 h -8.1270 h -8.1270 v 8.1270 h 8.1270 v 8.1270 h -8.1270 v 8.1270 h 8.1270 h 8.1270 v -8.1270 h 8.1270 v 8.1270 v 8.1270 h -8.1270 v 8.1270 h 8.1270 v 8.1270 v 8.1270 h -8.1270 v -8.1270 h -8.1270 v 8.1270 h -8.1270 v -8.1270 v -8.1270 h 8.1270 v -8.1270 h -8.1270 h -8.1270 h -8.1270 v 8.1270 h 8.1270 v 8.1270 v 8.1270 h -8.1270 v -8.1270 h -8.1270 v 8.1270 h -8.1270 v -8.1270 v -8.1270 h 8.1270 v -8.1270 h -8.1270 v -8.1270 v -8.1270 h 8.1270 v 8.1270 h 8.1270 h 8.1270 v -8.1270 h -8.1270 v -8.1270 h 8.1270 v -8.1270 h -8.1270 h -8.1270 v 8.1270 h -8.1270 v -8.1270 v -8.1270 h 8.1270 v -8.1270 h -8.1270 v -8.1270 v -8.1270 h 8.1270 v 8.1270 h 8.1270 v -8.1270 h 8.1270 v 8.1270 v 8.1270 h -8.1270 v 8.1270 h 8.1270 h 8.1270 v -8.1270 h 8.1270 v 8.1270 h 8.1270 h 8.1270 v -8.1270 h -8.1270 v -8.1270 h 8.1270 v -8.1270 h -8.1270 h -8.1270 v 8.1270 h -8.1270 v -8.1270 v -8.1270 v -8.1270 h 8.1270 v 8.1270 h 8.1270 h 8.1270 v -8.1270 h -8.1270 v -8.1270 h 8.1270 v -8.1270 h -8.1270 h -8.1270 v 8.1270 h -8.1270 v -8.1270 h -8.1270 h -8.1270 v 8.1270 h 8.1270 v 8.1270 v 8.1270 h -8.1270 v -8.1270 h -8.1270 v 8.1270 h -8.1270 v -8.1270 v -8.1270 h 8.1270 v -8.1270 h -8.1270 h -8.1270 h -8.1270 v 8.1270 h 8.1270 v 8.1270 v 8.1270 h -8.1270 v -8.1270 h -8.1270 v 8.1270 h -8.1270 v -8.1270 v -8.1270 h 8.1270 v -8.1270 h -8.1270 h -8.1270 v 8.1270 h -8.1270 v -8.1270 h -8.1270 h -8.1270 v 8.1270 h 8.1270 v 8.1270 h -8.1270 v 8.1270 h 8.1270 h 8.1270 v -8.1270 h 8.1270 v 8.1270 v 8.1270 v 8.1270 h -8.1270 v -8.1270 h -8.1270 h -8.1270 v 8.1270 h 8.1270 v 8.1270 h -8.1270 v 8.1270 h 8.1270 h 8.1270 v -8.1270 h 8.1270 v 8.1270 h 8.1270 h 8.1270 v -8.1270 h -8.1270 v -8.1270 v -8.1270 h 8.1270 v 8.1270 h 8.1270 v -8.1270 h 8.1270 v 8.1270 v 8.1270 h -8.1270 v 8.1270 h 8.1270 v 8.1270 v 8.1270 h -8.1270 v -8.1270 h -8.1270 h -8.1270 v 8.1270 h 8.1270 v 8.1270 h -8.1270 v 8.1270 h 8.1270 h 8.1270 v -8.1270 h 8.1270 v 8.1270 v 8.1270 h -8.1270 v 8.1270 h 8.1270 v 8.1270 v 8.1270 h -8.1270 v -8.1270 h -8.1270 v 8.1270 h -8.1270 v -8.1270 v -8.1270 h 8.1270 v -8.1270 h -8.1270 h -8.1270 h -8.1270 v 8.1270 h 8.1270 v 8.1270 v 8.1270 h -8.1270 v -8.1270 h -8.1270 v 8.1270 h -8.1270 v -8.1270 v -8.1270 h 8.1270 v -8.1270 h -8.1270 v -8.1270 v -8.1270 h 8.1270 v 8.1270 h 8.1270 h 8.1270 v -8.1270 h -8.1270 v -8.1270 h 8.1270 v -8.1270 h -8.1270 h -8.1270 v 8.1270 h -8.1270 v -8.1270 h -8.1270 v 8.1270 h -8.1270 v -8.1270 h -8.1270 h -8.1270 v 8.1270 h 8.1270 v 8.1270 h -8.1270 v 8.1270 h 8.1270 h 8.1270 v -8.1270 h 8.1270 v 8.1270 v 8.1270 h -8.1270 v 8.1270 h 8.1270 v 8.1270 v 8.1270 h -8.1270 v -8.1270 h -8.1270 v 8.1270 h -8.1270 v -8.1270 v -8.1270 h 8.1270 v -8.1270 h -8.1270 h -8.1270 h -8.1270 v 8.1270 h 8.1270 v 8.1270 v 8.1270 h -8.1270 v -8.1270 h -8.1270 v 8.1270 h -8.1270 v -8.1270 v -8.1270 h 8.1270 v -8.1270 h -8.1270 v -8.1270 v -8.1270 h 8.1270 v 8.1270 h 8.1270 h 8.1270 v -8.1270 h -8.1270 v -8.1270 h 8.1270 v -8.1270 h -8.1270 h -8.1270 v 8.1270 h -8.1270 v -8.1270 v -8.1270 h 8.1270 v -8.1270 h -8.1270 v -8.1270 v -8.1270 h 8.1270 v 8.1270 h 8.1270 v -8.1270 h 8.1270 v 8.1270 v 8.1270 h -8.1270 v 8.1270 h 8.1270 h 8.1270 v -8.1270 h 8.1270 v 8.1270 h 8.1270 h 8.1270 v -8.1270 h -8.1270 v -8.1270 h 8.1270 v -8.1270 h -8.1270 h -8.1270 v 8.1270 h -8.1270 v -8.1270 v -8.1270 v -8.1270 h 8.1270 v 8.1270 h 8.1270 h 8.1270 v -8.1270 h -8.1270 v -8.1270 h 8.1270 v -8.1270 h -8.1270 h -8.1270 v 8.1270 h -8.1270 v -8.1270 h -8.1270 h -8.1270 v 8.1270 h 8.1270 v 8.1270 v 8.1270 h -8.1270 v -8.1270 h -8.1270 v 8.1270 h -8.1270 v -8.1270 v -8.1270 h 8.1270 v -8.1270 h -8.1270 v -8.1270 v -8.1270 h 8.1270 v 8.1270 h 8.1270 h 8.1270 v -8.1270 h -8.1270 v -8.1270 h 8.1270 v -8.1270 h -8.1270 h -8.1270 v 8.1270 h -8.1270 v -8.1270 v -8.1270 h 8.1270 v -8.1270 h -8.1270 v -8.1270 v -8.1270 h 8.1270 v 8.1270 h 8.1270 v -8.1270 h 8.1270 v 8.1270 v 8.1270 h -8.1270 v 8.1270 h 8.1270 h 8.1270 h 8.1270 v -8.1270 h -8.1270 v -8.1270 v -8.1270 h 8.1270 v 8.1270 h 8.1270 v -8.1270 h 8.1270 v 8.1270 v 8.1270 h -8.1270 v 8.1270 h 8.1270 v 8.1270 v 8.1270 h -8.1270 v -8.1270 h -8.1270 h -8.1270 v 8.1270 h 8.1270 v 8.1270 h -8.1270 v 8.1270 h 8.1270 h 8.1270 v -8.1270 h 8.1270 v 8.1270 h 8.1270 h 8.1270 v -8.1270 h -8.1270 v -8.1270 v -8.1270 h 8.1270 v 8.1270 h 8.1270 v -8.1270 h 8.1270 v 8.1270 v 8.1270 h -8.1270 v 8.1270 h 8.1270 h 8.1270 v -8.1270 h 8.1270 v 8.1270 h 8.1270 h 8.1270 v -8.1270 h -8.1270 v -8.1270 h 8.1270 v -8.1270 h -8.1270 h -8.1270 v 8.1270 h -8.1270 v -8.1270 v -8.1270 v -8.1270 h 8.1270 v 8.1270 h 8.1270 h 8.1270 v -8.1270 h -8.1270 v -8.1270 h 8.1270 v -8.1270 h -8.1270 h -8.1270 v 8.1270 h -8.1270 v -8.1270 h -8.1270 h -8.1270 v 8.1270 h 8.1270 v 8.1270 v 8.1270 h -8.1270 v -8.1270 h -8.1270 v 8.1270 h -8.1270 v -8.1270 v -8.1270 h 8.1270 v -8.1270 h -8.1270 v -8.1270 h 8.1270 v -8.1270 h -8.1270 v -8.1270 v -8.1270 h 8.1270 v 8.1270 h 8.1270 v -8.1270 h 8.1270 v 8.1270 v 8.1270 h -8.1270 v 8.1270 h 8.1270 h 8.1270 v -8.1270 h 8.1270 v 8.1270 h 8.1270 h 8.1270 v -8.1270 h -8.1270 v -8.1270 h 8.1270 v -8.1270 h -8.1270 h -8.1270 v 8.1270 h -8.1270 v -8.1270 v -8.1270 v -8.1270 h 8.1270 v 8.1270 h 8.1270 h 8.1270 v -8.1270 h -8.1270 v -8.1270 h 8.1270 v -8.1270 h -8.1270 h -8.1270 v 8.1270 h -8.1270 v -8.1270 h -8.1270 h -8.1270 v 8.1270 h 8.1270 v 8.1270 v 8.1270 h -8.1270 v -8.1270 h -8.1270 v 8.1270 h -8.1270 v -8.1270 v -8.1270 h 8.1270 v -8.1270 h -8.1270 h -8.1270 v 8.1270 h -8.1270 v -8.1270 h -8.1270 h -8.1270 v 8.1270 h 8.1270 v 8.1270 h -8.1270 v 8.1270 h 8.1270 h 8.1270 v -8.1270 h 8.1270 v 8.1270 v 8.1270 h -8.1270 v 8.1270 h 8.1270 v 8.1270 v 8.1270 h -8.1270 v -8.1270 h -8.1270 v 8.1270 h -8.1270 v -8.1270 v -8.1270 h 8.1270 v -8.1270 h -8.1270 h -8.1270 h -8.1270 v 8.1270 h 8.1270 v 8.1270 v 8.1270 h -8.1270 v -8.1270 h -8.1270 v 8.1270 h -8.1270 v -8.1270 v -8.1270 h 8.1270 v -8.1270 h -8.1270 v -8.1270 v -8.1270 h 8.1270 v 8.1270 h 8.1270 h 8.1270 v -8.1270 h -8.1270 v -8.1270 h 8.1270 v -8.1270 h -8.1270 h -8.1270 v 8.1270 h -8.1270 v -8.1270 "/></g></svg>