<?xml version="1.0" encoding="UTF-8"?>
<!DOCTYPE svg PUBLIC "-//W3C//DTD SVG 1.1//EN"
    "http://www.w3.org/Graphics/SVG/1.1/DTD/svg11.dtd"><svg xmlns="http://www.w3.org/2000/svg" height="512.0000" viewBox="0.0 0.0 512.0 512.0" font-size="1" xmlns:xlink="http://www.w3.org/1999/xlink" version="1.1" stroke-opacity="1" width="512.0000" stroke="rgb(0,0,0)"><defs></defs><g stroke-width="0.0" fill="rgb(255,255,255)" stroke-linecap="butt" stroke-linejoin="miter" stroke-opacity="1.0" fill-opacity="1.0" stroke="rgb(0,0,0)" stroke-miterlimit="10.0"><path d="M 512.0000,512.0000 l -0.0000,-512.0000 h -512.0000 l -0.0000,512.0000 Z"/></g><g stroke-width="2.0479999999999996" fill="rgb(0,0,0)" stroke-linecap="butt" stroke-linejoin="miter" stroke-opacity="1.0" fill-opacity="0.0" stroke="rgb(0,0,0)" stroke-miterlimit="10.0"><path d="M 421.5026,485.8984 l 64.3958,-64.3958 c 4.4456,-4.4456 4.4456,-11.6534 0.0000 -16.0990l -64.3958,-64.3958 c -4.4456,-4.4456 -11.6534,-4.4456 -16.0990 -0.0000l -64.3958,64.3958 c -4.4456,4.4456 -4.4456,11.6534 -0.0000 16.0990l 64.3958,64.3958 c 4.4456,4.4456 11.6534,4.4456 16.0990 -0.0000Z"/></g><g stroke-width="2.0479999999999996" fill="rgb(0,0,0)" stroke-linecap="butt" stroke-linejoin="miter" stroke-opacity="1.0" fill-opacity="0.0" stroke="rgb(0,0,0)" stroke-miterlimit="10.0"><path d="M 353.0820,393.3294 l 40.2474,-40.2474 l -40.2474,-40.2474 l -40.2474,40.2474 Z"/></g><g stroke-width="2.0479999999999996" fill="rgb(0,0,0)" stroke-linecap="butt" stroke-linejoin="miter" stroke-opacity="1.0" fill-opacity="0.0" stroke="rgb(0,0,0)" stroke-miterlimit="10.0"><path d="M 322.8965,343.0202 l 20.1237,-20.1237 l -20.1237,-20.1237 l -20.1237,20.1237 Z"/></g><g stroke-width="2.0479999999999996" fill="rgb(0,0,100)" stroke-linecap="butt" stroke-linejoin="miter" stroke-opacity="1.0" fill-opacity="0.39215686274509803" stroke="rgb(0,0,0)" stroke-miterlimit="10.0"><path d="M 312.8346,312.8346 c 44.4560,-44.4560 44.4560,-116.5335 0.0000 -160.9896c -44.4560,-44.4560 -116.5335,-44.4560 -160.9896 -0.0000c -44.4560,44.4560 -44.4560,116.5335 -0.0000 160.9896c 44.4560,44.4560 116.5335,44.4560 160.9896 0.0000Z"/></g><g stroke-width="2.0479999999999996" fill="rgb(100,0,0)" stroke-linecap="butt" stroke-linejoin="miter" stroke-opacity="1.0" fill-opacity="0.39215686274509803" stroke="rgb(0,0,0)" stroke-miterlimit="10.0"><path d="M 151.8451,151.8451 c 22.2280,-22.2280 22.2280,-58.2668 0.0000 -80.4948c -22.2280,-22.2280 -58.2668,-22.2280 -80.4948 -0.0000c -22.2280,22.2280 -22.2280,58.2668 -0.0000 80.4948c 22.2280,22.2280 58.2668,22.2280 80.4948 0.0000Z"/></g><g stroke-width="2.0479999999999996" fill="rgb(0,100,0)" stroke-linecap="butt" stroke-linejoin="miter" stroke-opacity="1.0" fill-opacity="0.39215686274509803" stroke="rgb(0,0,0)" stroke-miterlimit="10.0"><path d="M 71.3503,71.3503 c 11.1140,-11.1140 11.1140,-29.1334 0.0000 -40.2474c -11.1140,-11.1140 -29.1334,-11.1140 -40.2474 -0.0000c -11.1140,11.1140 -11.1140,29.1334 -0.0000 40.2474c 11.1140,11.1140 29.1334,11.1140 40.2474 0.0000Z"/></g></svg>