<?xml version="1.0" encoding="UTF-8"?>
<!DOCTYPE svg PUBLIC "-//W3C//DTD SVG 1.1//EN"
    "http://www.w3.org/Graphics/SVG/1.1/DTD/svg11.dtd"><svg xmlns="http://www.w3.org/2000/svg" height="512.0000" viewBox="0.0 0.0 512.0 512.0" font-size="1" xmlns:xlink="http://www.w3.org/1999/xlink" version="1.1" stroke-opacity="1" width="512.0000" stroke="rgb(0,0,0)"><defs></defs><g stroke-width="0.0" fill="rgb(255,255,255)" stroke-linecap="butt" stroke-linejoin="miter" stroke-opacity="1.0" fill-opacity="1.0" stroke="rgb(0,0,0)" stroke-miterlimit="10.0"><path d="M 512.0000,512.0000 l -0.0000,-512.0000 h -512.0000 l -0.0000,512.0000 Z"/></g><g stroke-width="2.048" fill="rgb(0,0,0)" stroke-linecap="butt" stroke-linejoin="miter" stroke-opacity="1.0" fill-opacity="0.0" stroke="rgb(0,0,0)" stroke-miterlimit="10.0"><path d="M 409.6802,489.4404 l 79.7602,-79.7602 l -79.7602,-79.7602 l -79.7602,79.7602 Z"/></g><g stroke-width="2.048" fill="rgb(0,0,0)" stroke-linecap="butt" stroke-linejoin="miter" stroke-opacity="1.0" fill-opacity="0.0" stroke="rgb(0,0,0)" stroke-miterlimit="10.0"><path d="M 349.8600,389.7401 l 39.8801,-39.8801 l -39.8801,-39.8801 l -39.8801,39.8801 Z"/></g><g stroke-width="2.048" fill="rgb(0,0,0)" stroke-linecap="butt" stroke-linejoin="miter" stroke-opacity="1.0" fill-opacity="0.0" stroke="rgb(0,0,0)" stroke-miterlimit="10.0"><path d="M 319.9499,339.8900 l 19.9401,-19.9401 l -19.9401,-19.9401 l -19.9401,19.9401 Z"/></g><g stroke-width="2.048" fill="rgb(0,0,100)" stroke-linecap="butt" stroke-linejoin="miter" stroke-opacity="1.0" fill-opacity="0.39215686274509803" stroke="rgb(0,0,0)" stroke-miterlimit="10.0"><path d="M 309.9799,309.9799 c 44.0504,-44.0504 44.0504,-115.4701 0.0000 -159.5205c -44.0504,-44.0504 -115.4701,-44.0504 -159.5205 -0.0000c -44.0504,44.0504 -44.0504,115.4701 -0.0000 159.5205c 44.0504,44.0504 115.4701,44.0504 159.5205 0.0000Z"/></g><g stroke-width="2.048" fill="rgb(100,0,0)" stroke-linecap="butt" stroke-linejoin="miter" stroke-opacity="1.0" fill-opacity="0.39215686274509803" stroke="rgb(0,0,0)" stroke-miterlimit="10.0"><path d="M 150.4594,150.4594 c 22.0252,-22.0252 22.0252,-57.7351 0.0000 -79.7602c -22.0252,-22.0252 -57.7351,-22.0252 -79.7602 -0.0000c -22.0252,22.0252 -22.0252,57.7351 -0.0000 79.7602c 22.0252,22.0252 57.7351,22.0252 79.7602 0.0000Z"/></g><g stroke-width="2.048" fill="rgb(0,100,0)" stroke-linecap="butt" stroke-linejoin="miter" stroke-opacity="1.0" fill-opacity="0.39215686274509803" stroke="rgb(0,0,0)" stroke-miterlimit="10.0"><path d="M 70.6992,70.6992 c 11.0126,-11.0126 11.0126,-28.8675 0.0000 -39.8801c -11.0126,-11.0126 -28.8675,-11.0126 -39.8801 -0.0000c -11.0126,11.0126 -11.0126,28.8675 -0.0000 39.8801c 11.0126,11.0126 28.8675,11.0126 39.8801 0.0000Z"/></g></svg>