<?xml version="1.0" encoding="UTF-8"?>
<!DOCTYPE svg PUBLIC "-//W3C//DTD SVG 1.1//EN"
    "http://www.w3.org/Graphics/SVG/1.1/DTD/svg11.dtd"><svg xmlns="http://www.w3.org/2000/svg" height="512.0000" viewBox="0.0 0.0 512.0 512.0" font-size="1" xmlns:xlink="http://www.w3.org/1999/xlink" version="1.1" stroke-opacity="1" width="512.0000" stroke="rgb(0,0,0)"><defs></defs><g stroke-width="4.616781184208238" fill="rgb(0,0,200)" stroke-linecap="butt" stroke-dasharray="23.083905921041186,4.616781184208238" stroke-linejoin="miter" stroke-opacity="0.9803921568627451" fill-opacity="0.9803921568627451" stroke="rgb(0,200,0)" stroke-dashoffset="0.0" stroke-miterlimit="10.0"><path d="M 508.8462,307.7412 l -59.7455,-222.9734 l -445.9468,119.4911 l 59.7455,222.9734 Z"/></g><g stroke-width="0.0" fill="rgb(255,0,0)" stroke-linecap="butt" stroke-linejoin="miter" stroke-opacity="1.0" fill-opacity="1.0" stroke="rgb(0,0,0)" stroke-miterlimit="10.0"><path d="M 266.1138,256.0000 c 0.0000,-5.5857 -4.5281,-10.1138 -10.1138 -10.1138c -5.5857,-0.0000 -10.1138,4.5281 -10.1138 10.1138c -0.0000,5.5857 4.5281,10.1138 10.1138 10.1138c 5.5857,0.0000 10.1138,-4.5281 10.1138 -10.1138Z"/></g><g stroke-width="1.8756095605923282" fill="rgb(0,0,0)" stroke-linecap="butt" stroke-linejoin="miter" stroke-opacity="1.0" fill-opacity="0.0" stroke="rgb(255,0,0)" stroke-miterlimit="10.0"><path d="M 508.8462,256.0000 c -4.5242,-16.2194 -14.3095,-31.1961 -19.5236 -46.4107c -5.2141,-15.2147 -5.8571,-30.6674 -7.9611 -46.9370c -2.1040,-16.2696 -5.6691,-33.3560 -12.7639 -48.7053c -7.0948,-15.3494 -17.7193,-28.9617 -30.4311 -40.1133c -12.7118,-11.1516 -27.5107,-19.8425 -43.4653 -25.4144c -15.9546,-5.5719 -33.0648,-8.0247 -49.8824 -6.8464c -16.8176,1.1783 -33.3427,5.9879 -48.7053 12.7639c -15.3627,6.7761 -29.5630,15.5187 -40.1133 30.4311c -10.5503,14.9124 -17.4507,35.9947 -25.4144 43.4653c -7.9637,7.4707 -16.9907,1.3298 -29.9073 -5.7916c -12.9166,-7.1214 -29.7228,-15.2233 -46.6226 -19.0121c -16.8998,-3.7887 -33.8932,-3.2643 -50.3493 0.2769c -16.4561,3.5412 -32.3750,10.0990 -46.4107 19.5236c -14.0358,9.4246 -26.1884,21.7160 -35.4066 35.7981c -9.2181,14.0821 -15.5018,29.9550 -19.0121 46.6226c -3.5103,16.6676 -4.2473,34.1299 0.2769 50.3493c 4.5242,16.2194 14.3095,31.1961 19.5236 46.4107c 5.2141,15.2147 5.8571,30.6674 7.9611 46.9370c 2.1040,16.2696 5.6691,33.3560 12.7639 48.7053c 7.0948,15.3494 17.7193,28.9617 30.4311 40.1133c 12.7118,11.1516 27.5107,19.8425 43.4653 25.4144c 15.9546,5.5719 33.0648,8.0247 49.8824 6.8464c 16.8176,-1.1783 33.3427,-5.9879 48.7053 -12.7639c 15.3627,-6.7761 29.5630,-15.5187 40.1133 -30.4311c 10.5503,-14.9124 17.4507,-35.9947 25.4144 -43.4653c 7.9637,-7.4707 16.9907,-1.3298 29.9073 5.7916c 12.9166,7.1214 29.7228,15.2233 46.6226 19.0121c 16.8998,3.7887 33.8932,3.2643 50.3493 -0.2769c 16.4561,-3.5412 32.3750,-10.0990 46.4107 -19.5236c 14.0358,-9.4246 26.1884,-21.7160 35.4066 -35.7981c 9.2181,-14.0821 15.5018,-29.9550 19.0121 -46.6226c 3.5103,-16.6676 4.2473,-34.1299 -0.2769 -50.3493Z"/></g></svg>