<?xml version="1.0" encoding="UTF-8"?>
<!DOCTYPE svg PUBLIC "-//W3C//DTD SVG 1.1//EN"
    "http://www.w3.org/Graphics/SVG/1.1/DTD/svg11.dtd"><svg xmlns="http://www.w3.org/2000/svg" height="512.0000" viewBox="0.0 0.0 512.0 512.0" font-size="1" xmlns:xlink="http://www.w3.org/1999/xlink" version="1.1" stroke-opacity="1" width="512.0000" stroke="rgb(0,0,0)"><defs></defs><g stroke-width="2.666666666666666" fill="rgb(80,0,0)" stroke-linecap="butt" stroke-linejoin="miter" stroke-opacity="0.7843137254901961" fill-opacity="0.9803921568627451" stroke="rgb(0,100,0)" stroke-miterlimit="10.0"><path d="M 512.0000,249.2170 c 0.0000,-2.9455 -2.3878,-5.3333 -5.3333 -5.3333c -2.9455,-0.0000 -5.3333,2.3878 -5.3333 5.3333c -0.0000,2.9455 2.3878,5.3333 5.3333 5.3333c 2.9455,0.0000 5.3333,-2.3878 5.3333 -5.3333Z"/></g><g stroke-width="2.666666666666666" fill="rgb(80,0,0)" stroke-linecap="butt" stroke-linejoin="miter" stroke-opacity="0.7843137254901961" fill-opacity="0.9803921568627451" stroke="rgb(0,100,0)" stroke-miterlimit="10.0"><path d="M 501.3333,197.8797 c 0.0000,-2.9455 -2.3878,-5.3333 -5.3333 -5.3333c -2.9455,-0.0000 -5.3333,2.3878 -5.3333 5.3333c -0.0000,2.9455 2.3878,5.3333 5.3333 5.3333c 2.9455,0.0000 5.3333,-2.3878 5.3333 -5.3333Z"/></g><g stroke-width="2.666666666666666" fill="rgb(80,0,0)" stroke-linecap="butt" stroke-linejoin="miter" stroke-opacity="0.7843137254901961" fill-opacity="0.9803921568627451" stroke="rgb(0,100,0)" stroke-miterlimit="10.0"><path d="M 490.6667,155.6901 c 0.0000,-2.9455 -2.3878,-5.3333 -5.3333 -5.3333c -2.9455,-0.0000 -5.3333,2.3878 -5.3333 5.3333c -0.0000,2.9455 2.3878,5.3333 5.3333 5.3333c 2.9455,0.0000 5.3333,-2.3878 5.3333 -5.3333Z"/></g><g stroke-width="2.666666666666666" fill="rgb(80,0,0)" stroke-linecap="butt" stroke-linejoin="miter" stroke-opacity="0.7843137254901961" fill-opacity="0.9803921568627451" stroke="rgb(0,100,0)" stroke-miterlimit="10.0"><path d="M 480.0000,129.3092 c 0.0000,-2.9455 -2.3878,-5.3333 -5.3333 -5.3333c -2.9455,-0.0000 -5.3333,2.3878 -5.3333 5.3333c -0.0000,2.9455 2.3878,5.3333 5.3333 5.3333c 2.9455,0.0000 5.3333,-2.3878 5.3333 -5.3333Z"/></g><g stroke-width="2.666666666666666" fill="rgb(80,0,0)" stroke-linecap="butt" stroke-linejoin="miter" stroke-opacity="0.7843137254901961" fill-opacity="0.9803921568627451" stroke="rgb(0,100,0)" stroke-miterlimit="10.0"><path d="M 469.3333,122.9018 c 0.0000,-2.9455 -2.3878,-5.3333 -5.3333 -5.3333c -2.9455,-0.0000 -5.3333,2.3878 -5.3333 5.3333c -0.0000,2.9455 2.3878,5.3333 5.3333 5.3333c 2.9455,0.0000 5.3333,-2.3878 5.3333 -5.3333Z"/></g><g stroke-width="2.666666666666666" fill="rgb(80,0,0)" stroke-linecap="butt" stroke-linejoin="miter" stroke-opacity="0.7843137254901961" fill-opacity="0.9803921568627451" stroke="rgb(0,100,0)" stroke-miterlimit="10.0"><path d="M 458.6667,137.4795 c 0.0000,-2.9455 -2.3878,-5.3333 -5.3333 -5.3333c -2.9455,-0.0000 -5.3333,2.3878 -5.3333 5.3333c -0.0000,2.9455 2.3878,5.3333 5.3333 5.3333c 2.9455,0.0000 5.3333,-2.3878 5.3333 -5.3333Z"/></g><g stroke-width="2.666666666666666" fill="rgb(80,0,0)" stroke-linecap="butt" stroke-linejoin="miter" stroke-opacity="0.7843137254901961" fill-opacity="0.9803921568627451" stroke="rgb(0,100,0)" stroke-miterlimit="10.0"><path d="M 448.0000,170.7409 c 0.0000,-2.9455 -2.3878,-5.3333 -5.3333 -5.3333c -2.9455,-0.0000 -5.3333,2.3878 -5.3333 5.3333c -0.0000,2.9455 2.3878,5.3333 5.3333 5.3333c 2.9455,0.0000 5.3333,-2.3878 5.3333 -5.3333Z"/></g><g stroke-width="2.666666666666666" fill="rgb(80,0,0)" stroke-linecap="butt" stroke-linejoin="miter" stroke-opacity="0.7843137254901961" fill-opacity="0.9803921568627451" stroke="rgb(0,100,0)" stroke-miterlimit="10.0"><path d="M 437.3333,217.4347 c 0.0000,-2.9455 -2.3878,-5.3333 -5.3333 -5.3333c -2.9455,-0.0000 -5.3333,2.3878 -5.3333 5.3333c -0.0000,2.9455 2.3878,5.3333 5.3333 5.3333c 2.9455,0.0000 5.3333,-2.3878 5.3333 -5.3333Z"/></g><g stroke-width="2.666666666666666" fill="rgb(80,0,0)" stroke-linecap="butt" stroke-linejoin="miter" stroke-opacity="0.7843137254901961" fill-opacity="0.9803921568627451" stroke="rgb(0,100,0)" stroke-miterlimit="10.0"><path d="M 426.6667,270.1889 c 0.0000,-2.9455 -2.3878,-5.3333 -5.3333 -5.3333c -2.9455,-0.0000 -5.3333,2.3878 -5.3333 5.3333c -0.0000,2.9455 2.3878,5.3333 5.3333 5.3333c 2.9455,0.0000 5.3333,-2.3878 5.3333 -5.3333Z"/></g><g stroke-width="2.666666666666666" fill="rgb(80,0,0)" stroke-linecap="butt" stroke-linejoin="miter" stroke-opacity="0.7843137254901961" fill-opacity="0.9803921568627451" stroke="rgb(0,100,0)" stroke-miterlimit="10.0"><path d="M 416.0000,320.6749 c 0.0000,-2.9455 -2.3878,-5.3333 -5.3333 -5.3333c -2.9455,-0.0000 -5.3333,2.3878 -5.3333 5.3333c -0.0000,2.9455 2.3878,5.3333 5.3333 5.3333c 2.9455,0.0000 5.3333,-2.3878 5.3333 -5.3333Z"/></g><g stroke-width="2.666666666666666" fill="rgb(80,0,0)" stroke-linecap="butt" stroke-linejoin="miter" stroke-opacity="0.7843137254901961" fill-opacity="0.9803921568627451" stroke="rgb(0,100,0)" stroke-miterlimit="10.0"><path d="M 405.3333,360.9220 c 0.0000,-2.9455 -2.3878,-5.3333 -5.3333 -5.3333c -2.9455,-0.0000 -5.3333,2.3878 -5.3333 5.3333c -0.0000,2.9455 2.3878,5.3333 5.3333 5.3333c 2.9455,0.0000 5.3333,-2.3878 5.3333 -5.3333Z"/></g><g stroke-width="2.666666666666666" fill="rgb(80,0,0)" stroke-linecap="butt" stroke-linejoin="miter" stroke-opacity="0.7843137254901961" fill-opacity="0.9803921568627451" stroke="rgb(0,100,0)" stroke-miterlimit="10.0"><path d="M 394.6667,384.5761 c 0.0000,-2.9455 -2.3878,-5.3333 -5.3333 -5.3333c -2.9455,-0.0000 -5.3333,2.3878 -5.3333 5.3333c -0.0000,2.9455 2.3878,5.3333 5.3333 5.3333c 2.9455,0.0000 5.3333,-2.3878 5.3333 -5.3333Z"/></g><g stroke-width="2.666666666666666" fill="rgb(80,0,0)" stroke-linecap="butt" stroke-linejoin="miter" stroke-opacity="0.7843137254901961" fill-opacity="0.9803921568627451" stroke="rgb(0,100,0)" stroke-miterlimit="10.0"><path d="M 384.0000,387.9027 c 0.0000,-2.9455 -2.3878,-5.3333 -5.3333 -5.3333c -2.9455,-0.0000 -5.3333,2.3878 -5.3333 5.3333c -0.0000,2.9455 2.3878,5.3333 5.3333 5.3333c 2.9455,0.0000 5.3333,-2.3878 5.3333 -5.3333Z"/></g><g stroke-width="2.666666666666666" fill="rgb(80,0,0)" stroke-linecap="butt" stroke-linejoin="miter" stroke-opacity="0.7843137254901961" fill-opacity="0.9803921568627451" stroke="rgb(0,100,0)" stroke-miterlimit="10.0"><path d="M 373.3333,370.3767 c 0.0000,-2.9455 -2.3878,-5.3333 -5.3333 -5.3333c -2.9455,-0.0000 -5.3333,2.3878 -5.3333 5.3333c -0.0000,2.9455 2.3878,5.3333 5.3333 5.3333c 2.9455,0.0000 5.3333,-2.3878 5.3333 -5.3333Z"/></g><g stroke-width="2.666666666666666" fill="rgb(80,0,0)" stroke-linecap="butt" stroke-linejoin="miter" stroke-opacity="0.7843137254901961" fill-opacity="0.9803921568627451" stroke="rgb(0,100,0)" stroke-miterlimit="10.0"><path d="M 362.6667,334.7649 c 0.0000,-2.9455 -2.3878,-5.3333 -5.3333 -5.3333c -2.9455,-0.0000 -5.3333,2.3878 -5.3333 5.3333c -0.0000,2.9455 2.3878,5.3333 5.3333 5.3333c 2.9455,0.0000 5.3333,-2.3878 5.3333 -5.3333Z"/></g><g stroke-width="2.666666666666666" fill="rgb(80,0,0)" stroke-linecap="butt" stroke-linejoin="miter" stroke-opacity="0.7843137254901961" fill-opacity="0.9803921568627451" stroke="rgb(0,100,0)" stroke-miterlimit="10.0"><path d="M 352.0000,286.6897 c 0.0000,-2.9455 -2.3878,-5.3333 -5.3333 -5.3333c -2.9455,-0.0000 -5.3333,2.3878 -5.3333 5.3333c -0.0000,2.9455 2.3878,5.3333 5.3333 5.3333c 2.9455,0.0000 5.3333,-2.3878 5.3333 -5.3333Z"/></g><g stroke-width="2.666666666666666" fill="rgb(80,0,0)" stroke-linecap="butt" stroke-linejoin="miter" stroke-opacity="0.7843137254901961" fill-opacity="0.9803921568627451" stroke="rgb(0,100,0)" stroke-miterlimit="10.0"><path d="M 341.3333,233.7412 c 0.0000,-2.9455 -2.3878,-5.3333 -5.3333 -5.3333c -2.9455,-0.0000 -5.3333,2.3878 -5.3333 5.3333c -0.0000,2.9455 2.3878,5.3333 5.3333 5.3333c 2.9455,0.0000 5.3333,-2.3878 5.3333 -5.3333Z"/></g><g stroke-width="2.666666666666666" fill="rgb(80,0,0)" stroke-linecap="butt" stroke-linejoin="miter" stroke-opacity="0.7843137254901961" fill-opacity="0.9803921568627451" stroke="rgb(0,100,0)" stroke-miterlimit="10.0"><path d="M 330.6667,184.2787 c 0.0000,-2.9455 -2.3878,-5.3333 -5.3333 -5.3333c -2.9455,-0.0000 -5.3333,2.3878 -5.3333 5.3333c -0.0000,2.9455 2.3878,5.3333 5.3333 5.3333c 2.9455,0.0000 5.3333,-2.3878 5.3333 -5.3333Z"/></g><g stroke-width="2.666666666666666" fill="rgb(80,0,0)" stroke-linecap="butt" stroke-linejoin="miter" stroke-opacity="0.7843137254901961" fill-opacity="0.9803921568627451" stroke="rgb(0,100,0)" stroke-miterlimit="10.0"><path d="M 320.0000,146.1113 c 0.0000,-2.9455 -2.3878,-5.3333 -5.3333 -5.3333c -2.9455,-0.0000 -5.3333,2.3878 -5.3333 5.3333c -0.0000,2.9455 2.3878,5.3333 5.3333 5.3333c 2.9455,0.0000 5.3333,-2.3878 5.3333 -5.3333Z"/></g><g stroke-width="2.666666666666666" fill="rgb(80,0,0)" stroke-linecap="butt" stroke-linejoin="miter" stroke-opacity="0.7843137254901961" fill-opacity="0.9803921568627451" stroke="rgb(0,100,0)" stroke-miterlimit="10.0"><path d="M 309.3333,125.2647 c 0.0000,-2.9455 -2.3878,-5.3333 -5.3333 -5.3333c -2.9455,-0.0000 -5.3333,2.3878 -5.3333 5.3333c -0.0000,2.9455 2.3878,5.3333 5.3333 5.3333c 2.9455,0.0000 5.3333,-2.3878 5.3333 -5.3333Z"/></g><g stroke-width="2.666666666666666" fill="rgb(80,0,0)" stroke-linecap="butt" stroke-linejoin="miter" stroke-opacity="0.7843137254901961" fill-opacity="0.9803921568627451" stroke="rgb(0,100,0)" stroke-miterlimit="10.0"><path d="M 298.6667,125.0303 c 0.0000,-2.9455 -2.3878,-5.3333 -5.3333 -5.3333c -2.9455,-0.0000 -5.3333,2.3878 -5.3333 5.3333c -0.0000,2.9455 2.3878,5.3333 5.3333 5.3333c 2.9455,0.0000 5.3333,-2.3878 5.3333 -5.3333Z"/></g><g stroke-width="2.666666666666666" fill="rgb(80,0,0)" stroke-linecap="butt" stroke-linejoin="miter" stroke-opacity="0.7843137254901961" fill-opacity="0.9803921568627451" stroke="rgb(0,100,0)" stroke-miterlimit="10.0"><path d="M 288.0000,145.4449 c 0.0000,-2.9455 -2.3878,-5.3333 -5.3333 -5.3333c -2.9455,-0.0000 -5.3333,2.3878 -5.3333 5.3333c -0.0000,2.9455 2.3878,5.3333 5.3333 5.3333c 2.9455,0.0000 5.3333,-2.3878 5.3333 -5.3333Z"/></g><g stroke-width="2.666666666666666" fill="rgb(80,0,0)" stroke-linecap="butt" stroke-linejoin="miter" stroke-opacity="0.7843137254901961" fill-opacity="0.9803921568627451" stroke="rgb(0,100,0)" stroke-miterlimit="10.0"><path d="M 277.3333,183.2856 c 0.0000,-2.9455 -2.3878,-5.3333 -5.3333 -5.3333c -2.9455,-0.0000 -5.3333,2.3878 -5.3333 5.3333c -0.0000,2.9455 2.3878,5.3333 5.3333 5.3333c 2.9455,0.0000 5.3333,-2.3878 5.3333 -5.3333Z"/></g><g stroke-width="2.666666666666666" fill="rgb(80,0,0)" stroke-linecap="butt" stroke-linejoin="miter" stroke-opacity="0.7843137254901961" fill-opacity="0.9803921568627451" stroke="rgb(0,100,0)" stroke-miterlimit="10.0"><path d="M 266.6667,232.5782 c 0.0000,-2.9455 -2.3878,-5.3333 -5.3333 -5.3333c -2.9455,-0.0000 -5.3333,2.3878 -5.3333 5.3333c -0.0000,2.9455 2.3878,5.3333 5.3333 5.3333c 2.9455,0.0000 5.3333,-2.3878 5.3333 -5.3333Z"/></g><g stroke-width="2.666666666666666" fill="rgb(80,0,0)" stroke-linecap="butt" stroke-linejoin="miter" stroke-opacity="0.7843137254901961" fill-opacity="0.9803921568627451" stroke="rgb(0,100,0)" stroke-miterlimit="10.0"><path d="M 256.0000,285.5404 c 0.0000,-2.9455 -2.3878,-5.3333 -5.3333 -5.3333c -2.9455,-0.0000 -5.3333,2.3878 -5.3333 5.3333c -0.0000,2.9455 2.3878,5.3333 5.3333 5.3333c 2.9455,0.0000 5.3333,-2.3878 5.3333 -5.3333Z"/></g><g stroke-width="2.666666666666666" fill="rgb(80,0,0)" stroke-linecap="butt" stroke-linejoin="miter" stroke-opacity="0.7843137254901961" fill-opacity="0.9803921568627451" stroke="rgb(0,100,0)" stroke-miterlimit="10.0"><path d="M 245.3333,333.8107 c 0.0000,-2.9455 -2.3878,-5.3333 -5.3333 -5.3333c -2.9455,-0.0000 -5.3333,2.3878 -5.3333 5.3333c -0.0000,2.9455 2.3878,5.3333 5.3333 5.3333c 2.9455,0.0000 5.3333,-2.3878 5.3333 -5.3333Z"/></g><g stroke-width="2.666666666666666" fill="rgb(80,0,0)" stroke-linecap="butt" stroke-linejoin="miter" stroke-opacity="0.7843137254901961" fill-opacity="0.9803921568627451" stroke="rgb(0,100,0)" stroke-miterlimit="10.0"><path d="M 234.6667,369.7683 c 0.0000,-2.9455 -2.3878,-5.3333 -5.3333 -5.3333c -2.9455,-0.0000 -5.3333,2.3878 -5.3333 5.3333c -0.0000,2.9455 2.3878,5.3333 5.3333 5.3333c 2.9455,0.0000 5.3333,-2.3878 5.3333 -5.3333Z"/></g><g stroke-width="2.666666666666666" fill="rgb(80,0,0)" stroke-linecap="butt" stroke-linejoin="miter" stroke-opacity="0.7843137254901961" fill-opacity="0.9803921568627451" stroke="rgb(0,100,0)" stroke-miterlimit="10.0"><path d="M 224.0000,387.7362 c 0.0000,-2.9455 -2.3878,-5.3333 -5.3333 -5.3333c -2.9455,-0.0000 -5.3333,2.3878 -5.3333 5.3333c -0.0000,2.9455 2.3878,5.3333 5.3333 5.3333c 2.9455,0.0000 5.3333,-2.3878 5.3333 -5.3333Z"/></g><g stroke-width="2.666666666666666" fill="rgb(80,0,0)" stroke-linecap="butt" stroke-linejoin="miter" stroke-opacity="0.7843137254901961" fill-opacity="0.9803921568627451" stroke="rgb(0,100,0)" stroke-miterlimit="10.0"><path d="M 213.3333,384.8777 c 0.0000,-2.9455 -2.3878,-5.3333 -5.3333 -5.3333c -2.9455,-0.0000 -5.3333,2.3878 -5.3333 5.3333c -0.0000,2.9455 2.3878,5.3333 5.3333 5.3333c 2.9455,0.0000 5.3333,-2.3878 5.3333 -5.3333Z"/></g><g stroke-width="2.666666666666666" fill="rgb(80,0,0)" stroke-linecap="butt" stroke-linejoin="miter" stroke-opacity="0.7843137254901961" fill-opacity="0.9803921568627451" stroke="rgb(0,100,0)" stroke-miterlimit="10.0"><path d="M 202.6667,361.6441 c 0.0000,-2.9455 -2.3878,-5.3333 -5.3333 -5.3333c -2.9455,-0.0000 -5.3333,2.3878 -5.3333 5.3333c -0.0000,2.9455 2.3878,5.3333 5.3333 5.3333c 2.9455,0.0000 5.3333,-2.3878 5.3333 -5.3333Z"/></g><g stroke-width="2.666666666666666" fill="rgb(80,0,0)" stroke-linecap="butt" stroke-linejoin="miter" stroke-opacity="0.7843137254901961" fill-opacity="0.9803921568627451" stroke="rgb(0,100,0)" stroke-miterlimit="10.0"><path d="M 192.0000,321.7035 c 0.0000,-2.9455 -2.3878,-5.3333 -5.3333 -5.3333c -2.9455,-0.0000 -5.3333,2.3878 -5.3333 5.3333c -0.0000,2.9455 2.3878,5.3333 5.3333 5.3333c 2.9455,0.0000 5.3333,-2.3878 5.3333 -5.3333Z"/></g><g stroke-width="2.666666666666666" fill="rgb(80,0,0)" stroke-linecap="butt" stroke-linejoin="miter" stroke-opacity="0.7843137254901961" fill-opacity="0.9803921568627451" stroke="rgb(0,100,0)" stroke-miterlimit="10.0"><path d="M 181.3333,271.3617 c 0.0000,-2.9455 -2.3878,-5.3333 -5.3333 -5.3333c -2.9455,-0.0000 -5.3333,2.3878 -5.3333 5.3333c -0.0000,2.9455 2.3878,5.3333 5.3333 5.3333c 2.9455,0.0000 5.3333,-2.3878 5.3333 -5.3333Z"/></g><g stroke-width="2.666666666666666" fill="rgb(80,0,0)" stroke-linecap="butt" stroke-linejoin="miter" stroke-opacity="0.7843137254901961" fill-opacity="0.9803921568627451" stroke="rgb(0,100,0)" stroke-miterlimit="10.0"><path d="M 170.6667,218.5664 c 0.0000,-2.9455 -2.3878,-5.3333 -5.3333 -5.3333c -2.9455,-0.0000 -5.3333,2.3878 -5.3333 5.3333c -0.0000,2.9455 2.3878,5.3333 5.3333 5.3333c 2.9455,0.0000 5.3333,-2.3878 5.3333 -5.3333Z"/></g><g stroke-width="2.666666666666666" fill="rgb(80,0,0)" stroke-linecap="butt" stroke-linejoin="miter" stroke-opacity="0.7843137254901961" fill-opacity="0.9803921568627451" stroke="rgb(0,100,0)" stroke-miterlimit="10.0"><path d="M 160.0000,171.6529 c 0.0000,-2.9455 -2.3878,-5.3333 -5.3333 -5.3333c -2.9455,-0.0000 -5.3333,2.3878 -5.3333 5.3333c -0.0000,2.9455 2.3878,5.3333 5.3333 5.3333c 2.9455,0.0000 5.3333,-2.3878 5.3333 -5.3333Z"/></g><g stroke-width="2.666666666666666" fill="rgb(80,0,0)" stroke-linecap="butt" stroke-linejoin="miter" stroke-opacity="0.7843137254901961" fill-opacity="0.9803921568627451" stroke="rgb(0,100,0)" stroke-miterlimit="10.0"><path d="M 149.3333,138.0278 c 0.0000,-2.9455 -2.3878,-5.3333 -5.3333 -5.3333c -2.9455,-0.0000 -5.3333,2.3878 -5.3333 5.3333c -0.0000,2.9455 2.3878,5.3333 5.3333 5.3333c 2.9455,0.0000 5.3333,-2.3878 5.3333 -5.3333Z"/></g><g stroke-width="2.666666666666666" fill="rgb(80,0,0)" stroke-linecap="butt" stroke-linejoin="miter" stroke-opacity="0.7843137254901961" fill-opacity="0.9803921568627451" stroke="rgb(0,100,0)" stroke-miterlimit="10.0"><path d="M 138.6667,122.9998 c 0.0000,-2.9455 -2.3878,-5.3333 -5.3333 -5.3333c -2.9455,-0.0000 -5.3333,2.3878 -5.3333 5.3333c -0.0000,2.9455 2.3878,5.3333 5.3333 5.3333c 2.9455,0.0000 5.3333,-2.3878 5.3333 -5.3333Z"/></g><g stroke-width="2.666666666666666" fill="rgb(80,0,0)" stroke-linecap="butt" stroke-linejoin="miter" stroke-opacity="0.7843137254901961" fill-opacity="0.9803921568627451" stroke="rgb(0,100,0)" stroke-miterlimit="10.0"><path d="M 128.0000,128.9415 c 0.0000,-2.9455 -2.3878,-5.3333 -5.3333 -5.3333c -2.9455,-0.0000 -5.3333,2.3878 -5.3333 5.3333c -0.0000,2.9455 2.3878,5.3333 5.3333 5.3333c 2.9455,0.0000 5.3333,-2.3878 5.3333 -5.3333Z"/></g><g stroke-width="2.666666666666666" fill="rgb(80,0,0)" stroke-linecap="butt" stroke-linejoin="miter" stroke-opacity="0.7843137254901961" fill-opacity="0.9803921568627451" stroke="rgb(0,100,0)" stroke-miterlimit="10.0"><path d="M 117.3333,154.9148 c 0.0000,-2.9455 -2.3878,-5.3333 -5.3333 -5.3333c -2.9455,-0.0000 -5.3333,2.3878 -5.3333 5.3333c -0.0000,2.9455 2.3878,5.3333 5.3333 5.3333c 2.9455,0.0000 5.3333,-2.3878 5.3333 -5.3333Z"/></g><g stroke-width="2.666666666666666" fill="rgb(80,0,0)" stroke-linecap="butt" stroke-linejoin="miter" stroke-opacity="0.7843137254901961" fill-opacity="0.9803921568627451" stroke="rgb(0,100,0)" stroke-miterlimit="10.0"><path d="M 106.6667,196.8190 c 0.0000,-2.9455 -2.3878,-5.3333 -5.3333 -5.3333c -2.9455,-0.0000 -5.3333,2.3878 -5.3333 5.3333c -0.0000,2.9455 2.3878,5.3333 5.3333 5.3333c 2.9455,0.0000 5.3333,-2.3878 5.3333 -5.3333Z"/></g><g stroke-width="2.666666666666666" fill="rgb(80,0,0)" stroke-linecap="butt" stroke-linejoin="miter" stroke-opacity="0.7843137254901961" fill-opacity="0.9803921568627451" stroke="rgb(0,100,0)" stroke-miterlimit="10.0"><path d="M 96.0000,248.0385 c 0.0000,-2.9455 -2.3878,-5.3333 -5.3333 -5.3333c -2.9455,-0.0000 -5.3333,2.3878 -5.3333 5.3333c -0.0000,2.9455 2.3878,5.3333 5.3333 5.3333c 2.9455,0.0000 5.3333,-2.3878 5.3333 -5.3333Z"/></g><g stroke-width="2.666666666666666" fill="rgb(80,0,0)" stroke-linecap="butt" stroke-linejoin="miter" stroke-opacity="0.7843137254901961" fill-opacity="0.9803921568627451" stroke="rgb(0,100,0)" stroke-miterlimit="10.0"><path d="M 85.3333,300.4869 c 0.0000,-2.9455 -2.3878,-5.3333 -5.3333 -5.3333c -2.9455,-0.0000 -5.3333,2.3878 -5.3333 5.3333c -0.0000,2.9455 2.3878,5.3333 5.3333 5.3333c 2.9455,0.0000 5.3333,-2.3878 5.3333 -5.3333Z"/></g><g stroke-width="2.666666666666666" fill="rgb(80,0,0)" stroke-linecap="butt" stroke-linejoin="miter" stroke-opacity="0.7843137254901961" fill-opacity="0.9803921568627451" stroke="rgb(0,100,0)" stroke-miterlimit="10.0"><path d="M 74.6667,345.8835 c 0.0000,-2.9455 -2.3878,-5.3333 -5.3333 -5.3333c -2.9455,-0.0000 -5.3333,2.3878 -5.3333 5.3333c -0.0000,2.9455 2.3878,5.3333 5.3333 5.3333c 2.9455,0.0000 5.3333,-2.3878 5.3333 -5.3333Z"/></g><g stroke-width="2.666666666666666" fill="rgb(80,0,0)" stroke-linecap="butt" stroke-linejoin="miter" stroke-opacity="0.7843137254901961" fill-opacity="0.9803921568627451" stroke="rgb(0,100,0)" stroke-miterlimit="10.0"><path d="M 64.0000,377.0614 c 0.0000,-2.9455 -2.3878,-5.3333 -5.3333 -5.3333c -2.9455,-0.0000 -5.3333,2.3878 -5.3333 5.3333c -0.0000,2.9455 2.3878,5.3333 5.3333 5.3333c 2.9455,0.0000 5.3333,-2.3878 5.3333 -5.3333Z"/></g><g stroke-width="2.666666666666666" fill="rgb(80,0,0)" stroke-linecap="butt" stroke-linejoin="miter" stroke-opacity="0.7843137254901961" fill-opacity="0.9803921568627451" stroke="rgb(0,100,0)" stroke-miterlimit="10.0"><path d="M 53.3333,389.0982 c 0.0000,-2.9455 -2.3878,-5.3333 -5.3333 -5.3333c -2.9455,-0.0000 -5.3333,2.3878 -5.3333 5.3333c -0.0000,2.9455 2.3878,5.3333 5.3333 5.3333c 2.9455,0.0000 5.3333,-2.3878 5.3333 -5.3333Z"/></g><g stroke-width="2.666666666666666" fill="rgb(80,0,0)" stroke-linecap="butt" stroke-linejoin="miter" stroke-opacity="0.7843137254901961" fill-opacity="0.9803921568627451" stroke="rgb(0,100,0)" stroke-miterlimit="10.0"><path d="M 42.6667,380.0936 c 0.0000,-2.9455 -2.3878,-5.3333 -5.3333 -5.3333c -2.9455,-0.0000 -5.3333,2.3878 -5.3333 5.3333c -0.0000,2.9455 2.3878,5.3333 5.3333 5.3333c 2.9455,0.0000 5.3333,-2.3878 5.3333 -5.3333Z"/></g><g stroke-width="2.666666666666666" fill="rgb(80,0,0)" stroke-linecap="butt" stroke-linejoin="miter" stroke-opacity="0.7843137254901961" fill-opacity="0.9803921568627451" stroke="rgb(0,100,0)" stroke-miterlimit="10.0"><path d="M 32.0000,351.4692 c 0.0000,-2.9455 -2.3878,-5.3333 -5.3333 -5.3333c -2.9455,-0.0000 -5.3333,2.3878 -5.3333 5.3333c -0.0000,2.9455 2.3878,5.3333 5.3333 5.3333c 2.9455,0.0000 5.3333,-2.3878 5.3333 -5.3333Z"/></g><g stroke-width="2.666666666666666" fill="rgb(80,0,0)" stroke-linecap="butt" stroke-linejoin="miter" stroke-opacity="0.7843137254901961" fill-opacity="0.9803921568627451" stroke="rgb(0,100,0)" stroke-miterlimit="10.0"><path d="M 21.3333,307.7442 c 0.0000,-2.9455 -2.3878,-5.3333 -5.3333 -5.3333c -2.9455,-0.0000 -5.3333,2.3878 -5.3333 5.3333c -0.0000,2.9455 2.3878,5.3333 5.3333 5.3333c 2.9455,0.0000 5.3333,-2.3878 5.3333 -5.3333Z"/></g><g stroke-width="2.666666666666666" fill="rgb(80,0,0)" stroke-linecap="butt" stroke-linejoin="miter" stroke-opacity="0.7843137254901961" fill-opacity="0.9803921568627451" stroke="rgb(0,100,0)" stroke-miterlimit="10.0"><path d="M 10.6667,255.8218 c 0.0000,-2.9455 -2.3878,-5.3333 -5.3333 -5.3333c -2.9455,-0.0000 -5.3333,2.3878 -5.3333 5.3333c -0.0000,2.9455 2.3878,5.3333 5.3333 5.3333c 2.9455,0.0000 5.3333,-2.3878 5.3333 -5.3333Z"/></g><g stroke-width="1.5060089551362243" fill="rgb(0,0,0)" stroke-linecap="butt" stroke-linejoin="miter" stroke-opacity="1.0" fill-opacity="0.0" stroke="rgb(0,0,0)" stroke-miterlimit="10.0"><path d="M 5.3333,255.8218 c 3.5556,17.7752 7.1111,35.5504 10.6667 51.9224c 3.5556,16.3720 7.1111,31.3409 10.6667 43.7250c 3.5556,12.3841 7.1111,22.1834 10.6667 28.6244c 3.5556,6.4410 7.1111,9.5236 10.6667 9.0046c 3.5556,-0.5190 7.1111,-4.6397 10.6667 -12.0368c 3.5556,-7.3971 7.1111,-18.0706 10.6667 -31.1779c 3.5556,-13.1073 7.1111,-28.6485 10.6667 -45.3967c 3.5556,-16.7482 7.1111,-34.7034 10.6667 -52.4483c 3.5556,-17.7449 7.1111,-35.2794 10.6667 -51.2195c 3.5556,-15.9401 7.1111,-30.2856 10.6667 -41.9043c 3.5556,-11.6186 7.1111,-20.5104 10.6667 -25.9733c 3.5556,-5.4629 7.1111,-7.4970 10.6667 -5.9417c 3.5556,1.5553 7.1111,6.7000 10.6667 15.0280c 3.5556,8.3280 7.1111,19.8392 10.6667 33.6251c 3.5556,13.7858 7.1111,29.8463 10.6667 46.9135c 3.5556,17.0672 7.1111,35.1412 10.6667 52.7953c 3.5556,17.6541 7.1111,34.8882 10.6667 50.3419c 3.5556,15.4537 7.1111,29.1270 10.6667 39.9406c 3.5556,10.8136 7.1111,18.7674 10.6667 23.2336c 3.5556,4.4662 7.1111,5.4448 10.6667 2.8585c 3.5556,-2.5863 7.1111,-8.7375 10.6667 -17.9679c 3.5556,-9.2305 7.1111,-21.5402 10.6667 -35.9576c 3.5556,-14.4173 7.1111,-30.9423 10.6667 -48.2703c 3.5556,-17.3280 7.1111,-35.4592 10.6667 -52.9622c 3.5556,-17.5030 7.1111,-34.3779 10.6667 -49.2926c 3.5556,-14.9147 7.1111,-27.8691 10.6667 -37.8407c 3.5556,-9.9716 7.1111,-16.9604 10.6667 -20.4146c 3.5556,-3.4543 7.1111,-3.3740 10.6667 0.2345c 3.5556,3.6085 7.1111,10.7451 10.6667 20.8466c 3.5556,10.1015 7.1111,23.1678 10.6667 38.1674c 3.5556,14.9997 7.1111,31.9327 10.6667 49.4625c 3.5556,17.5298 7.1111,35.6562 10.6667 52.9485c 3.5556,17.2923 7.1111,33.7504 10.6667 48.0752c 3.5556,14.3247 7.1111,26.5161 10.6667 35.6118c 3.5556,9.0956 7.1111,15.0955 10.6667 17.5261c 3.5556,2.4305 7.1111,1.2917 10.6667 -3.3266c 3.5556,-4.6183 7.1111,-12.7161 10.6667 -23.6541c 3.5556,-10.9380 7.1111,-24.7163 10.6667 -40.2471c 3.5556,-15.5308 7.1111,-32.8143 10.6667 -50.4860c 3.5556,-17.6717 7.1111,-35.7317 10.6667 -52.7543c 3.5556,-17.0226 7.1111,-33.0078 10.6667 -46.6938c 3.5556,-13.6860 7.1111,-25.0729 10.6667 -33.2614c 3.5556,-8.1885 7.1111,-13.1787 10.6667 -14.5777c 3.5556,-1.3991 7.1111,0.7930 10.6667 6.4074c 3.5556,5.6144 7.1111,14.6511 10.6667 26.3810c 3.5556,11.7299 7.1111,26.1529 10.6667 42.1895c 3.5556,16.0367 7.1111,33.6870 10.6667 51.3373"/></g></svg>