<?xml version="1.0" encoding="UTF-8"?>
<!DOCTYPE svg PUBLIC "-//W3C//DTD SVG 1.1//EN"
    "http://www.w3.org/Graphics/SVG/1.1/DTD/svg11.dtd"><svg xmlns="http://www.w3.org/2000/svg" height="400.0000" viewBox="0.0 0.0 400.0 400.0" font-size="1" xmlns:xlink="http://www.w3.org/1999/xlink" version="1.1" stroke-opacity="1" width="400.0000" stroke="rgb(0,0,0)"><defs></defs><g font-size="40.0px" stroke-width="1.346600658448277" fill="rgb(0,0,0)" stroke-linecap="butt" stroke-linejoin="miter" stroke-opacity="1.0" fill-opacity="1.0" stroke="rgb(0,0,0)" stroke-miterlimit="10.0"><text text-anchor="middle" transform="matrix(1.0000,0.0000,0.0000,1.0000,200.0000,341.6667)" dominant-baseline="middle" stroke="none">Large Text</text></g><g stroke-width="1.346600658448277" fill="rgb(0,0,0)" stroke-linecap="butt" stroke-linejoin="miter" stroke-opacity="1.0" fill-opacity="0.0" stroke="rgb(0,0,0)" stroke-miterlimit="10.0"><path d="M 234.5683,301.6667 c 0.0000,-7.3638 -3.5817,-13.3333 -8.0000 -13.3333c -4.4183,-0.0000 -8.0000,5.9695 -8.0000 13.3333c -0.0000,7.3638 3.5817,13.3333 8.0000 13.3333c 4.4183,0.0000 8.0000,-5.9695 8.0000 -13.3333Z"/></g><g stroke-width="1.346600658448277" fill="rgb(0,0,0)" stroke-linecap="butt" stroke-linejoin="miter" stroke-opacity="1.0" fill-opacity="0.0" stroke="rgb(0,0,0)" stroke-miterlimit="10.0"><path d="M 205.2350,301.6667 c 0.0000,-7.3638 -4.7756,-13.3333 -10.6667 -13.3333c -5.8910,-0.0000 -10.6667,5.9695 -10.6667 13.3333c -0.0000,7.3638 4.7756,13.3333 10.6667 13.3333c 5.8910,0.0000 10.6667,-5.9695 10.6667 -13.3333Z"/></g><g stroke-width="1.346600658448277" fill="rgb(0,0,0)" stroke-linecap="butt" stroke-linejoin="miter" stroke-opacity="1.0" fill-opacity="0.0" stroke="rgb(0,0,0)" stroke-miterlimit="10.0"><path d="M 170.5683,301.6667 c 0.0000,-7.3638 -5.4712,-13.3333 -12.2202 -13.3333c -6.7490,-0.0000 -12.2202,5.9695 -12.2202 13.3333c -0.0000,7.3638 5.4712,13.3333 12.2202 13.3333c 6.7490,0.0000 12.2202,-5.9695 12.2202 -13.3333Z"/></g><g stroke-width="1.346600658448277" fill="rgb(0,0,0)" stroke-linecap="butt" stroke-linejoin="miter" stroke-opacity="1.0" fill-opacity="0.0" stroke="rgb(0,0,0)" stroke-miterlimit="10.0"><path d="M 132.7946,301.6667 c 0.0000,-7.3638 -5.8489,-13.3333 -13.0639 -13.3333c -7.2150,-0.0000 -13.0639,5.9695 -13.0639 13.3333c -0.0000,7.3638 5.8489,13.3333 13.0639 13.3333c 7.2150,0.0000 13.0639,-5.9695 13.0639 -13.3333Z"/></g><g stroke-width="1.346600658448277" fill="rgb(0,0,0)" stroke-linecap="butt" stroke-linejoin="miter" stroke-opacity="1.0" fill-opacity="0.0" stroke="rgb(0,0,0)" stroke-miterlimit="10.0"><path d="M 93.3333,301.6667 c 0.0000,-7.3638 -5.9695,-13.3333 -13.3333 -13.3333c -7.3638,-0.0000 -13.3333,5.9695 -13.3333 13.3333c -0.0000,7.3638 5.9695,13.3333 13.3333 13.3333c 7.3638,0.0000 13.3333,-5.9695 13.3333 -13.3333Z"/></g><g font-size="13.333333333333334px" stroke-width="1.346600658448277" fill="rgb(0,0,0)" stroke-linecap="butt" stroke-linejoin="miter" stroke-opacity="1.0" fill-opacity="1.0" stroke="rgb(0,0,0)" stroke-miterlimit="10.0"><text text-anchor="middle" transform="matrix(1.0000,0.0000,0.0000,1.0000,40.0000,301.6667)" dominant-baseline="middle" stroke="none">Ellipses</text></g><g stroke-width="1.346600658448277" fill="rgb(0,0,0)" stroke-linecap="butt" stroke-linejoin="miter" stroke-opacity="1.0" fill-opacity="0.0" stroke="rgb(0,0,0)" stroke-miterlimit="10.0"><path d="M 166.6667,225.0000 v 36.6667 "/></g><g stroke-width="1.346600658448277" fill="rgb(0,0,0)" stroke-linecap="butt" stroke-linejoin="miter" stroke-opacity="1.0" fill-opacity="0.0" stroke="rgb(0,0,0)" stroke-miterlimit="10.0"><path d="M 153.3333,226.6667 v 33.3333 "/></g><g stroke-width="1.346600658448277" fill="rgb(0,0,0)" stroke-linecap="butt" stroke-linejoin="miter" stroke-opacity="1.0" fill-opacity="0.0" stroke="rgb(0,0,0)" stroke-miterlimit="10.0"><path d="M 140.0000,228.3333 v 30.0000 "/></g><g stroke-width="1.346600658448277" fill="rgb(0,0,0)" stroke-linecap="butt" stroke-linejoin="miter" stroke-opacity="1.0" fill-opacity="0.0" stroke="rgb(0,0,0)" stroke-miterlimit="10.0"><path d="M 126.6667,230.0000 v 26.6667 "/></g><g stroke-width="1.346600658448277" fill="rgb(0,0,0)" stroke-linecap="butt" stroke-linejoin="miter" stroke-opacity="1.0" fill-opacity="0.0" stroke="rgb(0,0,0)" stroke-miterlimit="10.0"><path d="M 113.3333,231.6667 v 23.3333 "/></g><g stroke-width="1.346600658448277" fill="rgb(0,0,0)" stroke-linecap="butt" stroke-linejoin="miter" stroke-opacity="1.0" fill-opacity="0.0" stroke="rgb(0,0,0)" stroke-miterlimit="10.0"><path d="M 100.0000,233.3333 v 20.0000 "/></g><g stroke-width="1.346600658448277" fill="rgb(0,0,0)" stroke-linecap="butt" stroke-linejoin="miter" stroke-opacity="1.0" fill-opacity="0.0" stroke="rgb(0,0,0)" stroke-miterlimit="10.0"><path d="M 86.6667,235.0000 v 16.6667 "/></g><g stroke-width="1.346600658448277" fill="rgb(0,0,0)" stroke-linecap="butt" stroke-linejoin="miter" stroke-opacity="1.0" fill-opacity="0.0" stroke="rgb(0,0,0)" stroke-miterlimit="10.0"><path d="M 73.3333,236.6667 v 13.3333 "/></g><g stroke-width="1.346600658448277" fill="rgb(0,0,0)" stroke-linecap="butt" stroke-linejoin="miter" stroke-opacity="1.0" fill-opacity="0.0" stroke="rgb(0,0,0)" stroke-miterlimit="10.0"><path d="M 323.3333,211.6667 h 36.6667 "/></g><g stroke-width="1.346600658448277" fill="rgb(0,0,0)" stroke-linecap="butt" stroke-linejoin="miter" stroke-opacity="1.0" fill-opacity="0.0" stroke="rgb(0,0,0)" stroke-miterlimit="10.0"><path d="M 276.6667,211.6667 h 33.3333 "/></g><g stroke-width="1.346600658448277" fill="rgb(0,0,0)" stroke-linecap="butt" stroke-linejoin="miter" stroke-opacity="1.0" fill-opacity="0.0" stroke="rgb(0,0,0)" stroke-miterlimit="10.0"><path d="M 233.3333,211.6667 h 30.0000 "/></g><g stroke-width="1.346600658448277" fill="rgb(0,0,0)" stroke-linecap="butt" stroke-linejoin="miter" stroke-opacity="1.0" fill-opacity="0.0" stroke="rgb(0,0,0)" stroke-miterlimit="10.0"><path d="M 193.3333,211.6667 h 26.6667 "/></g><g stroke-width="1.346600658448277" fill="rgb(0,0,0)" stroke-linecap="butt" stroke-linejoin="miter" stroke-opacity="1.0" fill-opacity="0.0" stroke="rgb(0,0,0)" stroke-miterlimit="10.0"><path d="M 156.6667,211.6667 h 23.3333 "/></g><g stroke-width="1.346600658448277" fill="rgb(0,0,0)" stroke-linecap="butt" stroke-linejoin="miter" stroke-opacity="1.0" fill-opacity="0.0" stroke="rgb(0,0,0)" stroke-miterlimit="10.0"><path d="M 123.3333,211.6667 h 20.0000 "/></g><g stroke-width="1.346600658448277" fill="rgb(0,0,0)" stroke-linecap="butt" stroke-linejoin="miter" stroke-opacity="1.0" fill-opacity="0.0" stroke="rgb(0,0,0)" stroke-miterlimit="10.0"><path d="M 93.3333,211.6667 h 16.6667 "/></g><g stroke-width="1.346600658448277" fill="rgb(0,0,0)" stroke-linecap="butt" stroke-linejoin="miter" stroke-opacity="1.0" fill-opacity="0.0" stroke="rgb(0,0,0)" stroke-miterlimit="10.0"><path d="M 66.6667,211.6667 h 13.3333 "/></g><g font-size="13.333333333333334px" stroke-width="1.346600658448277" fill="rgb(0,0,0)" stroke-linecap="butt" stroke-linejoin="miter" stroke-opacity="1.0" fill-opacity="1.0" stroke="rgb(0,0,0)" stroke-miterlimit="10.0"><text text-anchor="middle" transform="matrix(1.0000,0.0000,0.0000,1.0000,40.0000,211.6667)" dominant-baseline="middle" stroke="none">Lines</text></g><g stroke-width="1.346600658448277" fill="rgb(0,0,0)" stroke-linecap="butt" stroke-linejoin="miter" stroke-opacity="1.0" fill-opacity="0.0" stroke="rgb(0,0,0)" stroke-miterlimit="10.0"><path d="M 200.0000,185.0000 l -0.0000,-33.3333 h -33.3333 l -0.0000,33.3333 Z"/></g><g stroke-width="1.346600658448277" fill="rgb(0,0,0)" stroke-linecap="butt" stroke-linejoin="miter" stroke-opacity="1.0" fill-opacity="0.0" stroke="rgb(0,0,0)" stroke-miterlimit="10.0"><path d="M 153.3333,181.6667 l -0.0000,-26.6667 h -26.6667 l -0.0000,26.6667 Z"/></g><g stroke-width="1.346600658448277" fill="rgb(0,0,0)" stroke-linecap="butt" stroke-linejoin="miter" stroke-opacity="1.0" fill-opacity="0.0" stroke="rgb(0,0,0)" stroke-miterlimit="10.0"><path d="M 113.3333,178.3333 l -0.0000,-20.0000 h -20.0000 l -0.0000,20.0000 Z"/></g><g stroke-width="1.346600658448277" fill="rgb(0,0,0)" stroke-linecap="butt" stroke-linejoin="miter" stroke-opacity="1.0" fill-opacity="0.0" stroke="rgb(0,0,0)" stroke-miterlimit="10.0"><path d="M 80.0000,175.0000 l -0.0000,-13.3333 h -13.3333 l -0.0000,13.3333 Z"/></g><g font-size="13.333333333333334px" stroke-width="1.346600658448277" fill="rgb(0,0,0)" stroke-linecap="butt" stroke-linejoin="miter" stroke-opacity="1.0" fill-opacity="1.0" stroke="rgb(0,0,0)" stroke-miterlimit="10.0"><text text-anchor="middle" transform="matrix(1.0000,0.0000,0.0000,1.0000,40.0000,168.3333)" dominant-baseline="middle" stroke="none">Squares</text></g><g stroke-width="1.346600658448277" fill="rgb(0,0,0)" stroke-linecap="butt" stroke-linejoin="miter" stroke-opacity="1.0" fill-opacity="0.0" stroke="rgb(0,0,0)" stroke-miterlimit="10.0"><path d="M 293.3333,91.6667 c 0.0000,-18.4095 -14.9238,-33.3333 -33.3333 -33.3333c -18.4095,-0.0000 -33.3333,14.9238 -33.3333 33.3333c -0.0000,18.4095 14.9238,33.3333 33.3333 33.3333c 18.4095,0.0000 33.3333,-14.9238 33.3333 -33.3333Z"/></g><g stroke-width="1.346600658448277" fill="rgb(0,0,0)" stroke-linecap="butt" stroke-linejoin="miter" stroke-opacity="1.0" fill-opacity="0.0" stroke="rgb(0,0,0)" stroke-miterlimit="10.0"><path d="M 213.3333,91.6667 c 0.0000,-14.7276 -11.9391,-26.6667 -26.6667 -26.6667c -14.7276,-0.0000 -26.6667,11.9391 -26.6667 26.6667c -0.0000,14.7276 11.9391,26.6667 26.6667 26.6667c 14.7276,0.0000 26.6667,-11.9391 26.6667 -26.6667Z"/></g><g stroke-width="1.346600658448277" fill="rgb(0,0,0)" stroke-linecap="butt" stroke-linejoin="miter" stroke-opacity="1.0" fill-opacity="0.0" stroke="rgb(0,0,0)" stroke-miterlimit="10.0"><path d="M 146.6667,91.6667 c 0.0000,-11.0457 -8.9543,-20.0000 -20.0000 -20.0000c -11.0457,-0.0000 -20.0000,8.9543 -20.0000 20.0000c -0.0000,11.0457 8.9543,20.0000 20.0000 20.0000c 11.0457,0.0000 20.0000,-8.9543 20.0000 -20.0000Z"/></g><g stroke-width="1.346600658448277" fill="rgb(0,0,0)" stroke-linecap="butt" stroke-linejoin="miter" stroke-opacity="1.0" fill-opacity="0.0" stroke="rgb(0,0,0)" stroke-miterlimit="10.0"><path d="M 93.3333,91.6667 c 0.0000,-7.3638 -5.9695,-13.3333 -13.3333 -13.3333c -7.3638,-0.0000 -13.3333,5.9695 -13.3333 13.3333c -0.0000,7.3638 5.9695,13.3333 13.3333 13.3333c 7.3638,0.0000 13.3333,-5.9695 13.3333 -13.3333Z"/></g><g font-size="13.333333333333334px" stroke-width="1.346600658448277" fill="rgb(0,0,0)" stroke-linecap="butt" stroke-linejoin="miter" stroke-opacity="1.0" fill-opacity="1.0" stroke="rgb(0,0,0)" stroke-miterlimit="10.0"><text text-anchor="middle" transform="matrix(1.0000,0.0000,0.0000,1.0000,40.0000,91.6667)" dominant-baseline="middle" stroke="none">Circles</text></g></svg>