<?xml version="1.0" encoding="UTF-8"?>
<!DOCTYPE svg PUBLIC "-//W3C//DTD SVG 1.1//EN"
    "http://www.w3.org/Graphics/SVG/1.1/DTD/svg11.dtd"><svg xmlns="http://www.w3.org/2000/svg" height="512.0000" viewBox="0.0 0.0 512.0 512.0" font-size="1" xmlns:xlink="http://www.w3.org/1999/xlink" version="1.1" stroke-opacity="1" width="512.0000" stroke="rgb(0,0,0)"><defs></defs><g stroke-width="0.0" fill="rgb(255,255,255)" stroke-linecap="butt" stroke-linejoin="miter" stroke-opacity="1.0" fill-opacity="1.0" stroke="rgb(0,0,0)" stroke-miterlimit="10.0"><path d="M 399.9153,512.0000 l -0.0000,-512.0000 h -287.8307 l -0.0000,512.0000 Z"/></g><g stroke-width="1.5355484345044264" fill="rgb(0,0,0)" stroke-linecap="butt" stroke-linejoin="miter" stroke-opacity="1.0" fill-opacity="0.0" stroke="rgb(0,0,0)" stroke-miterlimit="10.0"><path d="M 256.0000,416.0564 l 54.4617,54.4617 "/></g><g stroke-width="0.0" fill="rgb(0,0,0)" stroke-linecap="butt" stroke-linejoin="miter" stroke-opacity="1.0" fill-opacity="1.0" stroke="rgb(0,0,0)" stroke-miterlimit="10.0"></g><g stroke-width="0.0" fill="rgb(0,0,0)" stroke-linecap="butt" stroke-linejoin="miter" stroke-opacity="1.0" fill-opacity="1.0" stroke="rgb(0,0,0)" stroke-miterlimit="10.0"></g><g stroke-width="0.0" fill="rgb(0,0,0)" stroke-linecap="butt" stroke-linejoin="miter" stroke-opacity="1.0" fill-opacity="1.0" stroke="rgb(0,0,0)" stroke-miterlimit="10.0"><path d="M 319.9624,480.0188 l -7.5027,-14.7248 l -1.7126,5.5095 l -5.5095,1.7126 Z"/></g><g stroke-width="0.0" fill="rgb(0,0,0)" stroke-linecap="butt" stroke-linejoin="miter" stroke-opacity="1.0" fill-opacity="1.0" stroke="rgb(0,0,0)" stroke-miterlimit="10.0"><path d="M 310.7471,470.8035 l -0.2854,-0.2854 l 0.5429,-0.5429 l -0.2575,0.8283 l -0.2854,-0.2854 l -0.5429,0.5429 Z"/></g><g stroke-width="1.5355484345044264" fill="rgb(0,0,0)" stroke-linecap="butt" stroke-linejoin="miter" stroke-opacity="1.0" fill-opacity="0.0" stroke="rgb(0,0,0)" stroke-miterlimit="10.0"><path d="M 256.0000,416.0564 l -54.4617,-54.4617 "/></g><g stroke-width="0.0" fill="rgb(0,0,0)" stroke-linecap="butt" stroke-linejoin="miter" stroke-opacity="1.0" fill-opacity="1.0" stroke="rgb(0,0,0)" stroke-miterlimit="10.0"></g><g stroke-width="0.0" fill="rgb(0,0,0)" stroke-linecap="butt" stroke-linejoin="miter" stroke-opacity="1.0" fill-opacity="1.0" stroke="rgb(0,0,0)" stroke-miterlimit="10.0"></g><g stroke-width="0.0" fill="rgb(0,0,0)" stroke-linecap="butt" stroke-linejoin="miter" stroke-opacity="1.0" fill-opacity="1.0" stroke="rgb(0,0,0)" stroke-miterlimit="10.0"><path d="M 192.0376,352.0941 l 7.5027,14.7248 l 1.7126,-5.5095 l 5.5095,-1.7126 Z"/></g><g stroke-width="0.0" fill="rgb(0,0,0)" stroke-linecap="butt" stroke-linejoin="miter" stroke-opacity="1.0" fill-opacity="1.0" stroke="rgb(0,0,0)" stroke-miterlimit="10.0"><path d="M 201.2529,361.3094 l 0.2854,0.2854 l -0.5429,0.5429 l 0.2575,-0.8283 l 0.2854,0.2854 l 0.5429,-0.5429 Z"/></g><g stroke-width="1.5355484345044264" fill="rgb(0,0,0)" stroke-linecap="butt" stroke-linejoin="miter" stroke-opacity="1.0" fill-opacity="0.0" stroke="rgb(0,0,0)" stroke-miterlimit="10.0"><path d="M 256.0000,416.0564 l -54.4617,54.4617 "/></g><g stroke-width="0.0" fill="rgb(0,0,0)" stroke-linecap="butt" stroke-linejoin="miter" stroke-opacity="1.0" fill-opacity="1.0" stroke="rgb(0,0,0)" stroke-miterlimit="10.0"></g><g stroke-width="0.0" fill="rgb(0,0,0)" stroke-linecap="butt" stroke-linejoin="miter" stroke-opacity="1.0" fill-opacity="1.0" stroke="rgb(0,0,0)" stroke-miterlimit="10.0"></g><g stroke-width="0.0" fill="rgb(0,0,0)" stroke-linecap="butt" stroke-linejoin="miter" stroke-opacity="1.0" fill-opacity="1.0" stroke="rgb(0,0,0)" stroke-miterlimit="10.0"><path d="M 192.0376,480.0188 l 14.7248,-7.5027 l -5.5095,-1.7126 l -1.7126,-5.5095 Z"/></g><g stroke-width="0.0" fill="rgb(0,0,0)" stroke-linecap="butt" stroke-linejoin="miter" stroke-opacity="1.0" fill-opacity="1.0" stroke="rgb(0,0,0)" stroke-miterlimit="10.0"><path d="M 201.2529,470.8035 l 0.2854,-0.2854 l 0.5429,0.5429 l -0.8283,-0.2575 l 0.2854,-0.2854 l -0.5429,-0.5429 Z"/></g><g stroke-width="1.5355484345044264" fill="rgb(0,0,0)" stroke-linecap="butt" stroke-linejoin="miter" stroke-opacity="1.0" fill-opacity="0.0" stroke="rgb(0,0,0)" stroke-miterlimit="10.0"><path d="M 256.0000,416.0564 l 0.0000,50.5263 "/></g><g stroke-width="0.0" fill="rgb(0,0,0)" stroke-linecap="butt" stroke-linejoin="miter" stroke-opacity="1.0" fill-opacity="1.0" stroke="rgb(0,0,0)" stroke-miterlimit="10.0"></g><g stroke-width="0.0" fill="rgb(0,0,0)" stroke-linecap="butt" stroke-linejoin="miter" stroke-opacity="1.0" fill-opacity="1.0" stroke="rgb(0,0,0)" stroke-miterlimit="10.0"></g><g stroke-width="0.0" fill="rgb(0,0,0)" stroke-linecap="butt" stroke-linejoin="miter" stroke-opacity="1.0" fill-opacity="1.0" stroke="rgb(0,0,0)" stroke-miterlimit="10.0"><path d="M 256.0000,480.0188 l 5.1068,-15.7172 l -5.1068,2.6848 l -5.1068,-2.6848 Z"/></g><g stroke-width="0.0" fill="rgb(0,0,0)" stroke-linecap="butt" stroke-linejoin="miter" stroke-opacity="1.0" fill-opacity="1.0" stroke="rgb(0,0,0)" stroke-miterlimit="10.0"><path d="M 256.0000,466.9864 l -0.0000,-0.4036 l 0.7678,-0.0000 l -0.7678,0.4036 l -0.0000,-0.4036 l -0.7678,0.0000 Z"/></g><g stroke-width="1.5355484345044264" fill="rgb(0,0,0)" stroke-linecap="butt" stroke-linejoin="miter" stroke-opacity="1.0" fill-opacity="0.0" stroke="rgb(0,0,0)" stroke-miterlimit="10.0"><path d="M 256.0000,416.0564 l -50.5263,0.0000 "/></g><g stroke-width="0.0" fill="rgb(0,0,0)" stroke-linecap="butt" stroke-linejoin="miter" stroke-opacity="1.0" fill-opacity="1.0" stroke="rgb(0,0,0)" stroke-miterlimit="10.0"></g><g stroke-width="0.0" fill="rgb(0,0,0)" stroke-linecap="butt" stroke-linejoin="miter" stroke-opacity="1.0" fill-opacity="1.0" stroke="rgb(0,0,0)" stroke-miterlimit="10.0"></g><g stroke-width="0.0" fill="rgb(0,0,0)" stroke-linecap="butt" stroke-linejoin="miter" stroke-opacity="1.0" fill-opacity="1.0" stroke="rgb(0,0,0)" stroke-miterlimit="10.0"><path d="M 192.0376,416.0564 l 15.7172,5.1068 l -2.6848,-5.1068 l 2.6848,-5.1068 Z"/></g><g stroke-width="0.0" fill="rgb(0,0,0)" stroke-linecap="butt" stroke-linejoin="miter" stroke-opacity="1.0" fill-opacity="1.0" stroke="rgb(0,0,0)" stroke-miterlimit="10.0"><path d="M 205.0700,416.0564 l 0.4036,-0.0000 l 0.0000,0.7678 l -0.4036,-0.7678 l 0.4036,-0.0000 l -0.0000,-0.7678 Z"/></g><g stroke-width="1.5355484345044264" fill="rgb(0,0,0)" stroke-linecap="butt" stroke-linejoin="miter" stroke-opacity="1.0" fill-opacity="0.0" stroke="rgb(0,0,0)" stroke-miterlimit="10.0"><path d="M 256.0000,416.0564 l 54.4617,-54.4617 "/></g><g stroke-width="0.0" fill="rgb(0,0,0)" stroke-linecap="butt" stroke-linejoin="miter" stroke-opacity="1.0" fill-opacity="1.0" stroke="rgb(0,0,0)" stroke-miterlimit="10.0"></g><g stroke-width="0.0" fill="rgb(0,0,0)" stroke-linecap="butt" stroke-linejoin="miter" stroke-opacity="1.0" fill-opacity="1.0" stroke="rgb(0,0,0)" stroke-miterlimit="10.0"></g><g stroke-width="0.0" fill="rgb(0,0,0)" stroke-linecap="butt" stroke-linejoin="miter" stroke-opacity="1.0" fill-opacity="1.0" stroke="rgb(0,0,0)" stroke-miterlimit="10.0"><path d="M 319.9624,352.0941 l -14.7248,7.5027 l 5.5095,1.7126 l 1.7126,5.5095 Z"/></g><g stroke-width="0.0" fill="rgb(0,0,0)" stroke-linecap="butt" stroke-linejoin="miter" stroke-opacity="1.0" fill-opacity="1.0" stroke="rgb(0,0,0)" stroke-miterlimit="10.0"><path d="M 310.7471,361.3094 l -0.2854,0.2854 l -0.5429,-0.5429 l 0.8283,0.2575 l -0.2854,0.2854 l 0.5429,0.5429 Z"/></g><g stroke-width="1.5355484345044264" fill="rgb(0,0,0)" stroke-linecap="butt" stroke-linejoin="miter" stroke-opacity="1.0" fill-opacity="0.0" stroke="rgb(0,0,0)" stroke-miterlimit="10.0"><path d="M 256.0000,416.0564 h 50.5263 "/></g><g stroke-width="0.0" fill="rgb(0,0,0)" stroke-linecap="butt" stroke-linejoin="miter" stroke-opacity="1.0" fill-opacity="1.0" stroke="rgb(0,0,0)" stroke-miterlimit="10.0"></g><g stroke-width="0.0" fill="rgb(0,0,0)" stroke-linecap="butt" stroke-linejoin="miter" stroke-opacity="1.0" fill-opacity="1.0" stroke="rgb(0,0,0)" stroke-miterlimit="10.0"></g><g stroke-width="0.0" fill="rgb(0,0,0)" stroke-linecap="butt" stroke-linejoin="miter" stroke-opacity="1.0" fill-opacity="1.0" stroke="rgb(0,0,0)" stroke-miterlimit="10.0"><path d="M 319.9624,416.0564 l -15.7172,-5.1068 l 2.6848,5.1068 l -2.6848,5.1068 Z"/></g><g stroke-width="0.0" fill="rgb(0,0,0)" stroke-linecap="butt" stroke-linejoin="miter" stroke-opacity="1.0" fill-opacity="1.0" stroke="rgb(0,0,0)" stroke-miterlimit="10.0"><path d="M 306.9300,416.0564 h -0.4036 v -0.7678 l 0.4036,0.7678 h -0.4036 v 0.7678 Z"/></g><g stroke-width="1.5355484345044264" fill="rgb(0,0,0)" stroke-linecap="butt" stroke-linejoin="miter" stroke-opacity="1.0" fill-opacity="0.0" stroke="rgb(0,0,0)" stroke-miterlimit="10.0"><path d="M 256.0000,416.0564 l 0.0000,-50.5263 "/></g><g stroke-width="0.0" fill="rgb(0,0,0)" stroke-linecap="butt" stroke-linejoin="miter" stroke-opacity="1.0" fill-opacity="1.0" stroke="rgb(0,0,0)" stroke-miterlimit="10.0"></g><g stroke-width="0.0" fill="rgb(0,0,0)" stroke-linecap="butt" stroke-linejoin="miter" stroke-opacity="1.0" fill-opacity="1.0" stroke="rgb(0,0,0)" stroke-miterlimit="10.0"></g><g stroke-width="0.0" fill="rgb(0,0,0)" stroke-linecap="butt" stroke-linejoin="miter" stroke-opacity="1.0" fill-opacity="1.0" stroke="rgb(0,0,0)" stroke-miterlimit="10.0"><path d="M 256.0000,352.0941 l -5.1068,15.7172 l 5.1068,-2.6848 l 5.1068,2.6848 Z"/></g><g stroke-width="0.0" fill="rgb(0,0,0)" stroke-linecap="butt" stroke-linejoin="miter" stroke-opacity="1.0" fill-opacity="1.0" stroke="rgb(0,0,0)" stroke-miterlimit="10.0"><path d="M 256.0000,365.1265 l -0.0000,0.4036 l -0.7678,-0.0000 l 0.7678,-0.4036 l -0.0000,0.4036 l 0.7678,0.0000 Z"/></g><g stroke-width="1.5355484345044264" fill="rgb(0,0,0)" stroke-linecap="butt" stroke-linejoin="miter" stroke-opacity="0.7843137254901961" fill-opacity="0.0" stroke="rgb(0,100,100)" stroke-miterlimit="10.0"><path d="M 173.4925,320.1129 h 165.0150 "/></g><g opacity="1.0" stroke-width="0.0" fill="rgb(200,0,0)" stroke-linecap="butt" stroke-linejoin="miter" stroke-opacity="0.7843137254901961" fill-opacity="1.0" stroke="rgb(0,100,100)" stroke-miterlimit="10.0"><path d="M 160.0564,320.1129 l 13.4360,-7.7573 v 15.5146 Z"/></g><g stroke-width="0.0" fill="rgb(0,100,100)" stroke-linecap="butt" stroke-linejoin="miter" stroke-opacity="0.7843137254901961" fill-opacity="0.7843137254901961" stroke="rgb(0,100,100)" stroke-miterlimit="10.0"></g><g opacity="1.0" stroke-width="0.0" fill="rgb(200,0,0)" stroke-linecap="butt" stroke-linejoin="miter" stroke-opacity="0.7843137254901961" fill-opacity="1.0" stroke="rgb(0,100,100)" stroke-miterlimit="10.0"><path d="M 351.9436,320.1129 l -13.4360,-7.7573 v 15.5146 Z"/></g><g stroke-width="0.0" fill="rgb(0,100,100)" stroke-linecap="butt" stroke-linejoin="miter" stroke-opacity="0.7843137254901961" fill-opacity="0.7843137254901961" stroke="rgb(0,100,100)" stroke-miterlimit="10.0"></g><g stroke-width="1.5355484345044264" fill="rgb(0,0,0)" stroke-linecap="butt" stroke-dasharray="3.997648442092886,7.995296884185772" stroke-linejoin="miter" stroke-opacity="0.7843137254901961" fill-opacity="0.0" stroke="rgb(0,100,100)" stroke-dashoffset="0.0" stroke-miterlimit="10.0"><path d="M 172.2969,276.7410 c 15.6324,7.0758 31.2647,14.1517 59.0107 13.6709c 27.7459,-0.4808 67.6055,-8.5182 107.4650 -16.5556"/></g><g opacity="1.0" stroke-width="0.0" fill="rgb(0,200,0)" stroke-linecap="butt" stroke-dasharray="3.997648442092886,7.995296884185772" stroke-linejoin="miter" stroke-opacity="0.7843137254901961" fill-opacity="1.0" stroke="rgb(0,100,100)" stroke-dashoffset="0.0" stroke-miterlimit="10.0"><path d="M 170.1767,281.4253 l 4.2406,-9.3685 l -12.2405,-5.5405 l -4.2406,9.3685 Z"/></g><g stroke-width="0.0" fill="rgb(0,100,100)" stroke-linecap="butt" stroke-dasharray="3.997648442092886,7.995296884185772" stroke-linejoin="miter" stroke-opacity="0.7843137254901961" fill-opacity="0.7843137254901961" stroke="rgb(0,100,100)" stroke-dashoffset="0.0" stroke-miterlimit="10.0"></g><g opacity="1.0" stroke-width="0.0" fill="rgb(200,0,0)" stroke-linecap="butt" stroke-dasharray="3.997648442092886,7.995296884185772" stroke-linejoin="miter" stroke-opacity="0.7843137254901961" fill-opacity="1.0" stroke="rgb(0,100,100)" stroke-dashoffset="0.0" stroke-miterlimit="10.0"><path d="M 351.9436,271.2005 c -8.6337,1.7409 -15.9696,-3.1330 -15.9696 -3.1330l 3.0191,5.7444 l 12.9505,-2.6114 c -8.6337,1.7409 -13.5076,9.0769 -13.5076 9.0769l 0.5571,-6.4655 Z"/></g><g stroke-width="0.0" fill="rgb(0,100,100)" stroke-linecap="butt" stroke-dasharray="3.997648442092886,7.995296884185772" stroke-linejoin="miter" stroke-opacity="0.7843137254901961" fill-opacity="0.7843137254901961" stroke="rgb(0,100,100)" stroke-dashoffset="0.0" stroke-miterlimit="10.0"><path d="M 338.9931,273.8119 l -0.2204,0.0445 l -0.1518,-0.7526 l 0.3722,0.7082 l -0.2204,0.0445 l 0.1518,0.7526 Z"/></g><g stroke-width="1.5355484345044264" fill="rgb(0,0,0)" stroke-linecap="butt" stroke-linejoin="miter" stroke-opacity="0.7843137254901961" fill-opacity="0.0" stroke="rgb(0,0,200)" stroke-miterlimit="10.0"><path d="M 172.9729,235.5188 c 22.6999,-6.5033 45.3998,-13.0066 73.0365 -12.8488c 27.6366,0.1579 60.2099,6.9770 92.7833 13.7961"/></g><g opacity="1.0" stroke-width="0.0" fill="rgb(0,200,0)" stroke-linecap="butt" stroke-linejoin="miter" stroke-opacity="0.7843137254901961" fill-opacity="1.0" stroke="rgb(0,0,200)" stroke-miterlimit="10.0"><path d="M 172.9729,235.5188 l -7.8296,-4.6029 l -13.4546,3.8546 l 8.3678,4.4487 l -4.7427,8.2048 l 13.4546,-3.8546 l 4.2045,-8.0506 Z"/></g><g stroke-width="0.0" fill="rgb(0,0,200)" stroke-linecap="butt" stroke-linejoin="miter" stroke-opacity="0.7843137254901961" fill-opacity="0.7843137254901961" stroke="rgb(0,0,200)" stroke-miterlimit="10.0"><path d="M 172.9729,235.5188 l -0.2115,-0.7381 l -0.7020,0.2011 l 0.9134,0.5370 l -0.4905,0.9392 l 0.7020,-0.2011 l -0.2115,-0.7381 Z"/></g><g opacity="1.0" stroke-width="0.0" fill="rgb(200,0,0)" stroke-linecap="butt" stroke-linejoin="miter" stroke-opacity="0.7843137254901961" fill-opacity="1.0" stroke="rgb(0,0,200)" stroke-miterlimit="10.0"><path d="M 351.9436,239.2193 l -14.4645,-9.8758 c 2.8646,4.3816 1.6349,10.2558 -2.7467 13.1205l 17.2112,-3.2447 Z"/></g><g stroke-width="0.0" fill="rgb(0,0,200)" stroke-linecap="butt" stroke-linejoin="miter" stroke-opacity="0.7843137254901961" fill-opacity="0.7843137254901961" stroke="rgb(0,0,200)" stroke-miterlimit="10.0"><path d="M 338.6353,237.2177 c 0.1454,-0.4917 0.2506,-0.9943 0.3146 -1.5030Z"/></g><g stroke-width="1.5355484345044264" fill="rgb(0,0,0)" stroke-linecap="butt" stroke-linejoin="miter" stroke-opacity="1.0" fill-opacity="0.0" stroke="rgb(0,0,0)" stroke-miterlimit="10.0"><path d="M 367.9342,175.8965 c 0.0000,-8.8314 -7.1592,-15.9906 -15.9906 -15.9906c -8.8314,-0.0000 -15.9906,7.1592 -15.9906 15.9906c -0.0000,8.8314 7.1592,15.9906 15.9906 15.9906c 8.8314,0.0000 15.9906,-7.1592 15.9906 -15.9906Z"/></g><g stroke-width="1.5355484345044264" fill="rgb(0,0,0)" stroke-linecap="butt" stroke-linejoin="miter" stroke-opacity="1.0" fill-opacity="0.0" stroke="rgb(0,0,0)" stroke-miterlimit="10.0"><path d="M 176.0470,175.8965 c 0.0000,-8.8314 -7.1592,-15.9906 -15.9906 -15.9906c -8.8314,-0.0000 -15.9906,7.1592 -15.9906 15.9906c -0.0000,8.8314 7.1592,15.9906 15.9906 15.9906c 8.8314,0.0000 15.9906,-7.1592 15.9906 -15.9906Z"/></g><g stroke-width="1.5355484345044264" fill="rgb(0,0,0)" stroke-linecap="butt" stroke-linejoin="miter" stroke-opacity="1.0" fill-opacity="0.0" stroke="rgb(0,0,0)" stroke-miterlimit="10.0"><path d="M 173.9070,167.8999 l 149.6158,12.3609 "/></g><g stroke-width="0.0" fill="rgb(0,0,0)" stroke-linecap="butt" stroke-linejoin="miter" stroke-opacity="1.0" fill-opacity="1.0" stroke="rgb(0,0,0)" stroke-miterlimit="10.0"></g><g stroke-width="0.0" fill="rgb(0,0,0)" stroke-linecap="butt" stroke-linejoin="miter" stroke-opacity="1.0" fill-opacity="1.0" stroke="rgb(0,0,0)" stroke-miterlimit="10.0"></g><g stroke-width="0.0" fill="rgb(0,0,0)" stroke-linecap="butt" stroke-linejoin="miter" stroke-opacity="1.0" fill-opacity="1.0" stroke="rgb(0,0,0)" stroke-miterlimit="10.0"><path d="M 336.9132,181.3671 l -15.2434,-6.3836 l 2.2552,5.3106 l -3.0962,4.8684 Z"/></g><g stroke-width="0.0" fill="rgb(0,0,0)" stroke-linecap="butt" stroke-linejoin="miter" stroke-opacity="1.0" fill-opacity="1.0" stroke="rgb(0,0,0)" stroke-miterlimit="10.0"><path d="M 323.9251,180.2941 l -0.4023,-0.0332 l 0.0632,-0.7652 l 0.3391,0.7984 l -0.4023,-0.0332 l -0.0632,0.7652 Z"/></g><g stroke-width="1.5355484345044264" fill="rgb(0,0,0)" stroke-linecap="butt" stroke-linejoin="miter" stroke-opacity="1.0" fill-opacity="0.0" stroke="rgb(0,0,0)" stroke-miterlimit="10.0"><path d="M 367.9342,111.9342 c 0.0000,-8.8314 -7.1592,-15.9906 -15.9906 -15.9906c -8.8314,-0.0000 -15.9906,7.1592 -15.9906 15.9906c -0.0000,8.8314 7.1592,15.9906 15.9906 15.9906c 8.8314,0.0000 15.9906,-7.1592 15.9906 -15.9906Z"/></g><g stroke-width="1.5355484345044264" fill="rgb(0,0,0)" stroke-linecap="butt" stroke-linejoin="miter" stroke-opacity="1.0" fill-opacity="0.0" stroke="rgb(0,0,0)" stroke-miterlimit="10.0"><path d="M 176.0470,111.9342 c 0.0000,-8.8314 -7.1592,-15.9906 -15.9906 -15.9906c -8.8314,-0.0000 -15.9906,7.1592 -15.9906 15.9906c -0.0000,8.8314 7.1592,15.9906 15.9906 15.9906c 8.8314,0.0000 15.9906,-7.1592 15.9906 -15.9906Z"/></g><g stroke-width="1.5355484345044264" fill="rgb(0,0,0)" stroke-linecap="butt" stroke-linejoin="miter" stroke-opacity="1.0" fill-opacity="0.0" stroke="rgb(0,0,0)" stroke-miterlimit="10.0"><path d="M 176.0470,111.9342 h 146.4699 "/></g><g stroke-width="0.0" fill="rgb(0,0,0)" stroke-linecap="butt" stroke-linejoin="miter" stroke-opacity="1.0" fill-opacity="1.0" stroke="rgb(0,0,0)" stroke-miterlimit="10.0"></g><g stroke-width="0.0" fill="rgb(0,0,0)" stroke-linecap="butt" stroke-linejoin="miter" stroke-opacity="1.0" fill-opacity="1.0" stroke="rgb(0,0,0)" stroke-miterlimit="10.0"></g><g stroke-width="0.0" fill="rgb(0,0,0)" stroke-linecap="butt" stroke-linejoin="miter" stroke-opacity="1.0" fill-opacity="1.0" stroke="rgb(0,0,0)" stroke-miterlimit="10.0"><path d="M 335.9530,111.9342 l -15.7172,-5.1068 l 2.6848,5.1068 l -2.6848,5.1068 Z"/></g><g stroke-width="0.0" fill="rgb(0,0,0)" stroke-linecap="butt" stroke-linejoin="miter" stroke-opacity="1.0" fill-opacity="1.0" stroke="rgb(0,0,0)" stroke-miterlimit="10.0"><path d="M 322.9206,111.9342 h -0.4036 v -0.7678 l 0.4036,0.7678 h -0.4036 v 0.7678 Z"/></g><g stroke-width="1.5355484345044264" fill="rgb(0,0,0)" stroke-linecap="butt" stroke-linejoin="miter" stroke-opacity="1.0" fill-opacity="0.0" stroke="rgb(0,0,0)" stroke-miterlimit="10.0"><path d="M 367.9342,47.9718 c 0.0000,-8.8314 -7.1592,-15.9906 -15.9906 -15.9906c -8.8314,-0.0000 -15.9906,7.1592 -15.9906 15.9906c -0.0000,8.8314 7.1592,15.9906 15.9906 15.9906c 8.8314,0.0000 15.9906,-7.1592 15.9906 -15.9906Z"/></g><g stroke-width="1.5355484345044264" fill="rgb(0,0,0)" stroke-linecap="butt" stroke-linejoin="miter" stroke-opacity="1.0" fill-opacity="0.0" stroke="rgb(0,0,0)" stroke-miterlimit="10.0"><path d="M 176.0470,47.9718 c 0.0000,-8.8314 -7.1592,-15.9906 -15.9906 -15.9906c -8.8314,-0.0000 -15.9906,7.1592 -15.9906 15.9906c -0.0000,8.8314 7.1592,15.9906 15.9906 15.9906c 8.8314,0.0000 15.9906,-7.1592 15.9906 -15.9906Z"/></g><g stroke-width="1.5355484345044264" fill="rgb(0,0,0)" stroke-linecap="butt" stroke-linejoin="miter" stroke-opacity="1.0" fill-opacity="0.0" stroke="rgb(0,0,0)" stroke-miterlimit="10.0"><path d="M 160.0564,47.9718 h 178.4511 "/></g><g stroke-width="0.0" fill="rgb(0,0,0)" stroke-linecap="butt" stroke-linejoin="miter" stroke-opacity="1.0" fill-opacity="1.0" stroke="rgb(0,0,0)" stroke-miterlimit="10.0"></g><g stroke-width="0.0" fill="rgb(0,0,0)" stroke-linecap="butt" stroke-linejoin="miter" stroke-opacity="1.0" fill-opacity="1.0" stroke="rgb(0,0,0)" stroke-miterlimit="10.0"></g><g stroke-width="0.0" fill="rgb(0,0,0)" stroke-linecap="butt" stroke-linejoin="miter" stroke-opacity="1.0" fill-opacity="1.0" stroke="rgb(0,0,0)" stroke-miterlimit="10.0"><path d="M 351.9436,47.9718 l -15.7172,-5.1068 l 2.6848,5.1068 l -2.6848,5.1068 Z"/></g><g stroke-width="0.0" fill="rgb(0,0,0)" stroke-linecap="butt" stroke-linejoin="miter" stroke-opacity="1.0" fill-opacity="1.0" stroke="rgb(0,0,0)" stroke-miterlimit="10.0"><path d="M 338.9112,47.9718 h -0.4036 v -0.7678 l 0.4036,0.7678 h -0.4036 v 0.7678 Z"/></g></svg>